<?xml version="1.0" encoding="utf-8"?>
<!-- Generator: Adobe Illustrator 23.0.1, SVG Export Plug-In . SVG Version: 6.00 Build 0)  -->
<svg version="1.1" id="OBJECTS" xmlns="http://www.w3.org/2000/svg" xmlns:xlink="http://www.w3.org/1999/xlink" x="0px" y="0px"
	 viewBox="0 0 625.6 427.9" style="enable-background:new 0 0 625.6 427.9;" xml:space="preserve">
<style type="text/css">
	.st0{fill:#E0E0E0;}
	.st1{fill:#EBEBED;}
	.st2{fill:#022A44;}
	.st3{fill:#352F6C;}
	.st4{fill:#A4B0BC;}
	.st5{fill:#92A1AD;}
	.st6{fill:#C7D3DD;}
	.st7{fill:#708491;}
	.st8{fill:#234396;}
	.st9{fill:#FFD255;}
	.st10{fill:#7D95C9;}
	.st11{fill:#2070B4;}
	.st12{fill:#FAA701;}
	.st13{fill:#FFFFFF;}
	.st14{fill:#E8E9EB;}
	.st15{fill:#E7A988;}
	.st16{fill:#D88568;}
	.st17{fill:#98A9D8;}
	.st18{fill:#B2104B;}
	.st19{fill:#ED2264;}
	.st20{fill:#22619C;}
	.st21{fill:#27B2E4;}
	.st22{fill:#292666;}
</style>
<g>
	<g>
		<g>
			<path class="st0" d="M529.8,373.9H127.4c-50.1,5.7-81,13.6-81,22.3c0,17.5,126.3,31.7,282.2,31.7s282.2-14.2,282.2-31.7
				C610.8,387.5,579.9,379.6,529.8,373.9z"/>
		</g>
	</g>
	<g>
		<g>
			<path class="st1" d="M618.3,374.6c2.4-7.6,0-17.1-4-24.6c-5.2-9.8-12.8-18.9-14.1-30c-2.4-21,18.7-38.8,17.9-60
				c-1-25.2-32.3-41.5-32.4-66.7c-0.1-23.6,27.7-41.9,23.8-65.2c-3.5-20.9-28.7-28.5-44-43c-15-14.2-17.7-38.8-33.6-52.1
				c-12.6-10.6-26.5-18.2-43.3-18.6c-11-0.3-20.2,3.1-30.7,5.8c-26.9,6.8-54.4-12-80-17.3c-20-4.1-41.4-3.8-61.3,0.8
				c-14.4,3.3-28.2,8.4-42.5,12.2c-14.5,3.8-26.2,3.8-40.8,0.7c-34.1-7.4-86.5,14-110.5,34.5C96.2,73.8,95,103.1,82.4,136
				c-12.2,31.8-15.3,66.8-29.2,97.9c-7.7,17.1-18.5,32.7-25.5,50.2c-11.4,28.6-11.6,61.7-0.4,90.4h591V374.6z"/>
		</g>
	</g>
	<g>
		<g>
			<g>
				<g>
					<path class="st2" d="M461.6,405.1c3.1,0,5.3-3.1,4.1-6c-3.4-8.3-12.9-14-21.9-16.7c-15.9-4.8-32.9-4.7-49.5-5.4
						c-16.6-0.7-33.7-2.5-48.4-10.5c-4.8-2.6-9.2-6-12.9-10v-100h-24.2v100c-3.8,4-8.2,7.4-12.9,10c-14.6,8-31.7,9.8-48.4,10.5
						c-16.6,0.7-33.5,0.7-49.5,5.4c-9.1,2.7-18.6,8.4-21.9,16.7c-1.2,2.9,1,6,4.1,6c2.2,0,4.4,0,6.6,0l-0.4-0.1
						c0.3-2.7,2.4-4.9,4.9-6s5.2-3,7.9-3.2c13.3-1.2,230.1-1.2,243.4,0c2.7,0.2,5.5,2.1,7.9,3.2c2.5,1.1,4.6,3.4,4.9,6l-0.4,0.1
						H461.6z"/>
				</g>
			</g>
			<g>
				<g>
					<path class="st3" d="M321.8,365.9h-0.1c-3.8,0-6.9-3.1-6.9-6.9v-29.1c0-3.8,3.1-6.9,6.9-6.9h0.1c3.8,0,6.9,3.1,6.9,6.9V359
						C328.7,362.8,325.6,365.9,321.8,365.9z"/>
				</g>
			</g>
			<g>
				<g>
					<g>
						<path class="st2" d="M573.3,353.8c-170.1-25.4-341.9-25.4-512,0c-4.5,0.7-8.6-2.8-8.6-7.4V36.7c0-4.6,4.1-8.1,8.6-7.4
							c170.1,25.4,341.9,25.4,512,0c4.5-0.7,8.6,2.8,8.6,7.4v309.7C581.9,351,577.8,354.5,573.3,353.8z"/>
					</g>
				</g>
			</g>
			<g>
				<g>
					<g>
						<path class="st4" d="M567.7,351.9c-169.4-26.1-340.4-26.1-509.8,0c0-105,0-210.1,0-315.1c169.4,26.1,340.4,26.1,509.8,0
							C567.7,141.8,567.7,246.9,567.7,351.9z"/>
					</g>
				</g>
			</g>
			<g>
				<g>
					<rect x="428.1" y="50.6" class="st5" width="120.5" height="71"/>
				</g>
			</g>
			<g>
				<g>
					<g>
						<path class="st6" d="M62.4,34c0,105,0,210.1,0,315.1c13.5-2.1,27-4,40.6-5.7l79-295.3C142,44.8,102.1,40.1,62.4,34z"/>
					</g>
				</g>
			</g>
			<g>
				<g>
					<g>
						<path class="st5" d="M148.1,261c-14,1.1-29-1.1-41.9-6.4c-19.5-8.5-31-25.6-43.9-40.9c0,45.2,0,90.3,0,135.5
							c169.4-26.1,340.4-26.1,509.8,0c0-83.7,0-167.4,0-251.1c-122.5,52.3-244.5,99.8-369.3,148C184.6,253.5,167.5,260,148.1,261z"
							/>
					</g>
				</g>
			</g>
			<g>
				<g>
					<rect x="209" y="52.1" class="st7" width="214" height="213.2"/>
				</g>
			</g>
			<g>
				<g>
					<rect x="61.8" y="96.5" class="st5" width="142.9" height="117.2"/>
				</g>
			</g>
			<g>
				<g>
					<rect x="428.6" y="139.6" class="st7" width="143.5" height="122.5"/>
				</g>
			</g>
		</g>
		<g>
			<g>
				<g>
					<g>
						<g>
							<rect x="435.9" y="129.4" class="st8" width="189.7" height="125.3"/>
						</g>
					</g>
				</g>
				<g>
					<g>
						<g>
							<g>
								<g>
									<path class="st9" d="M475.2,144.1c-12,0-21.7,9.7-21.7,21.7s9.7,21.7,21.7,21.7s21.7-9.7,21.7-21.7
										S487.2,144.1,475.2,144.1z M475.2,179c-7.3,0-13.1-5.9-13.1-13.1c0-7.3,5.9-13.1,13.1-13.1c7.3,0,13.1,5.9,13.1,13.1
										C488.4,173.1,482.5,179,475.2,179z"/>
								</g>
							</g>
							<g>
								<g>
									<path class="st10" d="M475.2,179c-7.1,0-12.9-5.7-13.1-12.8h-8.6c0.2,11.8,9.8,21.3,21.7,21.3c11.9,0,21.5-9.5,21.7-21.3
										h-8.6C488.2,173.3,482.4,179,475.2,179z"/>
								</g>
							</g>
							<g>
								<g>
									<path class="st11" d="M485.8,146.9l-3.7,7.7c3.8,2.3,6.3,6.5,6.3,11.2c0,0.1,0,0.3,0,0.4h8.6c0-0.1,0-0.3,0-0.4
										C497,157.7,492.5,150.6,485.8,146.9z"/>
								</g>
							</g>
						</g>
						<g>
							<g>
								<g>
									<path class="st9" d="M526.6,144.1c-12,0-21.7,9.7-21.7,21.7s9.7,21.7,21.7,21.7s21.7-9.7,21.7-21.7
										S538.6,144.1,526.6,144.1z M526.6,179c-7.3,0-13.1-5.9-13.1-13.1c0-7.3,5.9-13.1,13.1-13.1c7.3,0,13.1,5.9,13.1,13.1
										C539.8,173.1,533.9,179,526.6,179z"/>
								</g>
							</g>
							<g>
								<g>
									<path class="st9" d="M526.6,152.7c3.9,0,7.3,1.7,9.7,4.3l6.3-5.8c-4-4.4-9.7-7.1-16.1-7.1c-4.3,0-8.3,1.3-11.7,3.4l5.3,6.8
										C522.2,153.3,524.3,152.7,526.6,152.7z"/>
								</g>
							</g>
							<g>
								<g>
									<path class="st10" d="M548.3,165.1c-0.2-5.3-2.3-10.1-5.6-13.8l-6.3,5.8c1.9,2.1,3.2,4.9,3.4,8H548.3z"/>
								</g>
							</g>
							<g>
								<g>
									<path class="st10" d="M520.3,154.4l-5.3-6.8c-5.8,3.7-9.7,10.1-10,17.5c0,0.3,0,0.5,0,0.8c0,5.7,2.2,10.8,5.7,14.7l6.3-5.8
										c-2.2-2.3-3.5-5.5-3.5-8.9c0-0.3,0-0.5,0-0.8C513.8,160.5,516.5,156.5,520.3,154.4z"/>
								</g>
							</g>
							<g>
								<g>
									<path class="st11" d="M548.4,165.9c0-0.3,0-0.5,0-0.8h-8.6c0,0.3,0,0.5,0,0.8c0,3.5-1.4,6.7-3.6,9l5.3,6.8
										C545.7,177.7,548.4,172.1,548.4,165.9z"/>
								</g>
							</g>
						</g>
						<g>
							<g>
								<path class="st9" d="M578.1,144.1c-12,0-21.7,9.7-21.7,21.7s9.7,21.7,21.7,21.7s21.7-9.7,21.7-21.7S590,144.1,578.1,144.1z
									 M578.1,179c-7.3,0-13.1-5.9-13.1-13.1c0-7.3,5.9-13.1,13.1-13.1c7.3,0,13.1,5.9,13.1,13.1C591.2,173.1,585.3,179,578.1,179
									z"/>
							</g>
						</g>
						<g>
							<g>
								<path class="st10" d="M591.2,165.9c0,4.7-2.5,8.9-6.2,11.2l6,6.3c5.4-4,8.8-10.3,8.8-17.5c0-6.4-2.8-12.1-7.1-16.1l-6.2,6
									C589.4,158.2,591.2,161.8,591.2,165.9z"/>
							</g>
						</g>
					</g>
					<g>
						<g>
							<g>
								<rect x="447.3" y="227.5" class="st12" width="24.3" height="3.6"/>
							</g>
						</g>
						<g>
							<g>
								<rect x="447.3" y="235.4" class="st4" width="12.5" height="1.5"/>
							</g>
						</g>
						<g>
							<g>
								<rect x="461.9" y="235.4" class="st4" width="8" height="1.5"/>
							</g>
						</g>
						<g>
							<g>
								<polygon class="st4" points="465.4,239.3 465.4,240.3 464.6,240.3 464.6,239.3 451.6,239.3 451.6,240.8 470.9,240.8 
									470.9,239.3 								"/>
							</g>
						</g>
						<g>
							<g>
								<rect x="447.3" y="239.3" class="st4" width="3.3" height="1.5"/>
							</g>
						</g>
						<g>
							<g>
								<rect x="471.7" y="239.3" class="st4" width="3.1" height="1.5"/>
							</g>
						</g>
						<g>
							<g>
								<rect x="447.3" y="243.2" class="st4" width="25.4" height="1.5"/>
							</g>
						</g>
						<g>
							<g>
								<rect x="447.3" y="247.1" class="st4" width="18.5" height="1.5"/>
							</g>
						</g>
						<g>
							<g>
								<rect x="467.1" y="247.1" class="st4" width="7.7" height="1.5"/>
							</g>
						</g>
					</g>
					<g>
						<g>
							<g>
								<g>
									<rect x="467.1" y="194.4" class="st5" width="15.2" height="3.6"/>
								</g>
							</g>
							<g>
								<g>
									<rect x="467.1" y="201" class="st9" width="15.3" height="1"/>
								</g>
							</g>
							<g>
								<g>
									<rect x="467.1" y="205.2" class="st9" width="15.3" height="1"/>
								</g>
							</g>
						</g>
						<g>
							<g>
								<g>
									<rect x="519" y="194.4" class="st5" width="15.2" height="3.6"/>
								</g>
							</g>
							<g>
								<g>
									<rect x="519" y="201" class="st9" width="15.3" height="1"/>
								</g>
							</g>
							<g>
								<g>
									<rect x="519" y="205.2" class="st9" width="15.3" height="1"/>
								</g>
							</g>
						</g>
						<g>
							<g>
								<g>
									<rect x="570.9" y="194.4" class="st5" width="15.2" height="3.6"/>
								</g>
							</g>
							<g>
								<g>
									<rect x="570.9" y="201" class="st9" width="15.3" height="1"/>
								</g>
							</g>
							<g>
								<g>
									<rect x="570.9" y="205.2" class="st9" width="15.3" height="1"/>
								</g>
							</g>
						</g>
					</g>
				</g>
			</g>
			<g>
				<g>
					<g>
						<rect x="213.2" y="20.9" class="st13" width="206.5" height="231.2"/>
					</g>
				</g>
				<g>
					<g>
						<g>
							<g>
								<rect x="251.4" y="28.4" class="st14" width="52.6" height="6"/>
							</g>
						</g>
						<g>
							<g>
								<rect x="380.6" y="28.4" class="st14" width="23.1" height="6"/>
							</g>
						</g>
						<g>
							<g>
								<rect x="380.6" y="42.4" class="st14" width="23.1" height="2"/>
							</g>
						</g>
					</g>
					<g>
						<g>
							<g>
								<g>
									<path class="st9" d="M245.1,152.3c-8.4,0-15.3,6.8-15.3,15.3c0,8.4,6.8,15.3,15.3,15.3s15.3-6.8,15.3-15.3
										S253.6,152.3,245.1,152.3z M245.1,176.8c-5.1,0-9.3-4.1-9.3-9.3c0-5.1,4.1-9.3,9.3-9.3c5.1,0,9.3,4.1,9.3,9.3
										C254.4,172.7,250.2,176.8,245.1,176.8z"/>
								</g>
							</g>
							<g>
								<g>
									<path class="st9" d="M245.1,161.5c-3.4,0-6.1,2.7-6.1,6.1c0,3.4,2.7,6.1,6.1,6.1c3.4,0,6.1-2.7,6.1-6.1
										C251.2,164.2,248.5,161.5,245.1,161.5z M245.1,173c-3,0-5.4-2.4-5.4-5.4s2.4-5.4,5.4-5.4s5.4,2.4,5.4,5.4
										S248.1,173,245.1,173z"/>
								</g>
							</g>
						</g>
						<g>
							<g>
								<g>
									<path class="st9" d="M279,152.3c-8.4,0-15.3,6.8-15.3,15.3c0,8.4,6.8,15.3,15.3,15.3c8.4,0,15.3-6.8,15.3-15.3
										S287.5,152.3,279,152.3z M279,176.8c-5.1,0-9.3-4.1-9.3-9.3c0-5.1,4.1-9.3,9.3-9.3c5.1,0,9.3,4.1,9.3,9.3
										S284.1,176.8,279,176.8z"/>
								</g>
							</g>
							<g>
								<g>
									<path class="st9" d="M279,161.5c-3.4,0-6.1,2.7-6.1,6.1c0,3.4,2.7,6.1,6.1,6.1s6.1-2.7,6.1-6.1S282.4,161.5,279,161.5z
										 M279,173c-3,0-5.4-2.4-5.4-5.4s2.4-5.4,5.4-5.4s5.4,2.4,5.4,5.4S282,173,279,173z"/>
								</g>
							</g>
						</g>
					</g>
					<g>
						<g>
							<g>
								<polygon class="st9" points="234.6,214.7 234.2,213.7 286.5,192.4 297.9,197.5 311.9,177.3 321.3,183.2 331.5,168.5 
									332.3,169.1 321.6,184.5 312.2,178.6 298.2,198.7 286.5,193.5 								"/>
							</g>
						</g>
						<g>
							<g>
								<g>
									<rect x="250.3" y="203.2" class="st10" width="9.2" height="36.7"/>
								</g>
							</g>
							<g>
								<g>
									<rect x="265.1" y="208.9" class="st10" width="9.2" height="31"/>
								</g>
							</g>
							<g>
								<g>
									<rect x="280" y="202.3" class="st10" width="9.2" height="37.6"/>
								</g>
							</g>
							<g>
								<g>
									<rect x="294.8" y="212.7" class="st10" width="9.2" height="27.2"/>
								</g>
							</g>
							<g>
								<g>
									<rect x="309.7" y="187.1" class="st10" width="9.2" height="52.8"/>
								</g>
							</g>
							<g>
								<g>
									<rect x="324.6" y="182" class="st10" width="9.2" height="57.9"/>
								</g>
							</g>
						</g>
					</g>
					<g>
						<g>
							<g>
								<g>
									<g>
										<rect x="253.8" y="53.3" class="st14" width="11.9" height="90.9"/>
									</g>
								</g>
								<g>
									<g>
										<rect x="271.1" y="53.3" class="st14" width="11.9" height="90.9"/>
									</g>
								</g>
								<g>
									<g>
										<rect x="288.5" y="53.3" class="st14" width="11.9" height="90.9"/>
									</g>
								</g>
								<g>
									<g>
										<rect x="305.8" y="53.3" class="st14" width="11.9" height="90.9"/>
									</g>
								</g>
								<g>
									<g>
										<rect x="323.2" y="53.3" class="st14" width="11.9" height="90.9"/>
									</g>
								</g>
								<g>
									<g>
										<rect x="340.5" y="53.3" class="st14" width="11.9" height="90.9"/>
									</g>
								</g>
								<g>
									<g>
										<rect x="357.9" y="53.3" class="st14" width="11.9" height="90.9"/>
									</g>
								</g>
								<g>
									<g>
										<rect x="375.3" y="53.3" class="st14" width="11.9" height="90.9"/>
									</g>
								</g>
								<g>
									<g>
										<rect x="392.6" y="53.3" class="st14" width="11.9" height="90.9"/>
									</g>
								</g>
							</g>
							<g>
								<g>
									<g>
										<rect x="257.4" y="59.4" class="st13" width="1.5" height="84.2"/>
									</g>
								</g>
								<g>
									<g>
										<rect x="274.9" y="59.4" class="st13" width="1.5" height="84.2"/>
									</g>
								</g>
								<g>
									<g>
										<rect x="292.4" y="59.4" class="st13" width="1.5" height="84.2"/>
									</g>
								</g>
								<g>
									<g>
										<rect x="309.9" y="59.4" class="st13" width="1.5" height="84.2"/>
									</g>
								</g>
								<g>
									<g>
										<rect x="327.4" y="59.4" class="st13" width="1.5" height="84.2"/>
									</g>
								</g>
								<g>
									<g>
										<rect x="344.9" y="59.4" class="st13" width="1.5" height="84.2"/>
									</g>
								</g>
								<g>
									<g>
										<rect x="362.4" y="59.4" class="st13" width="1.5" height="84.2"/>
									</g>
								</g>
								<g>
									<g>
										<rect x="379.9" y="59.4" class="st13" width="1.5" height="84.2"/>
									</g>
								</g>
								<g>
									<g>
										<rect x="397.4" y="59.4" class="st13" width="1.5" height="84.2"/>
									</g>
								</g>
								<g>
									<g>
										<rect x="255.4" y="101.6" class="st12" width="5.5" height="42"/>
									</g>
								</g>
								<g>
									<g>
										<rect x="272.9" y="101.6" class="st12" width="5.5" height="42"/>
									</g>
								</g>
								<g>
									<g>
										<rect x="290.4" y="115.2" class="st12" width="5.5" height="28.4"/>
									</g>
								</g>
								<g>
									<g>
										<rect x="307.9" y="86.9" class="st12" width="5.5" height="56.7"/>
									</g>
								</g>
								<g>
									<g>
										<rect x="307.9" y="86.9" class="st9" width="5.5" height="11.9"/>
									</g>
								</g>
								<g>
									<g>
										<rect x="325.4" y="78.1" class="st12" width="5.5" height="65.5"/>
									</g>
								</g>
								<g>
									<g>
										<rect x="342.9" y="101.6" class="st12" width="5.5" height="42"/>
									</g>
								</g>
								<g>
									<g>
										<rect x="360.4" y="84.4" class="st12" width="5.5" height="59.2"/>
									</g>
								</g>
								<g>
									<g>
										<rect x="360.4" y="84.4" class="st9" width="5.5" height="4"/>
									</g>
								</g>
								<g>
									<g>
										<rect x="377.9" y="90.9" class="st12" width="5.5" height="52.7"/>
									</g>
								</g>
								<g>
									<g>
										<rect x="395.4" y="101.6" class="st12" width="5.5" height="42"/>
									</g>
								</g>
							</g>
						</g>
						<g>
							<g>
								<g>
									<rect x="236.7" y="140" class="st14" width="11.2" height="3.3"/>
								</g>
							</g>
							<g>
								<g>
									<rect x="236.7" y="126.6" class="st14" width="11.2" height="3.3"/>
								</g>
							</g>
							<g>
								<g>
									<rect x="236.7" y="113.1" class="st14" width="11.2" height="3.3"/>
								</g>
							</g>
							<g>
								<g>
									<rect x="236.7" y="99.7" class="st14" width="11.2" height="3.3"/>
								</g>
							</g>
							<g>
								<g>
									<rect x="236.7" y="86.2" class="st14" width="11.2" height="3.3"/>
								</g>
							</g>
							<g>
								<g>
									<rect x="236.7" y="72.8" class="st14" width="11.2" height="3.3"/>
								</g>
							</g>
							<g>
								<g>
									<rect x="236.7" y="59.4" class="st14" width="11.2" height="3.3"/>
								</g>
							</g>
						</g>
						<g>
							<g>
								<g>
									<rect x="253.8" y="49" class="st4" width="11.9" height="1.3"/>
								</g>
							</g>
							<g>
								<g>
									<rect x="271.1" y="49" class="st4" width="11.9" height="1.3"/>
								</g>
							</g>
							<g>
								<g>
									<rect x="288.5" y="49" class="st4" width="11.9" height="1.3"/>
								</g>
							</g>
							<g>
								<g>
									<rect x="305.8" y="49" class="st4" width="11.9" height="1.3"/>
								</g>
							</g>
							<g>
								<g>
									<rect x="323.2" y="49" class="st4" width="11.9" height="1.3"/>
								</g>
							</g>
							<g>
								<g>
									<rect x="340.5" y="49" class="st4" width="11.9" height="1.3"/>
								</g>
							</g>
							<g>
								<g>
									<rect x="357.9" y="49" class="st4" width="11.9" height="1.3"/>
								</g>
							</g>
							<g>
								<g>
									<rect x="375.3" y="49" class="st4" width="11.9" height="1.3"/>
								</g>
							</g>
							<g>
								<g>
									<rect x="392.6" y="49" class="st4" width="11.9" height="1.3"/>
								</g>
							</g>
						</g>
					</g>
				</g>
			</g>
			<g>
				<g>
					<g>
						<rect y="87" class="st13" width="194.7" height="117.2"/>
					</g>
				</g>
				<g>
					<g>
						<g>
							<g>
								<circle class="st12" cx="163.2" cy="128.3" r="29.1"/>
							</g>
						</g>
						<g>
							<g>
								<path class="st9" d="M163.1,99.2c-8.1,0-15.4,3.4-20.7,8.8l19.4,20.8l13.6-26.9C171.6,100.1,167.4,99.2,163.1,99.2z"/>
							</g>
						</g>
						<g>
							<g>
								<path class="st3" d="M188.2,113.4c-3-5-7.5-9.1-12.9-11.6l-13.6,26.9l0.3,0.3L188.2,113.4z"/>
							</g>
						</g>
						<g>
							<g>
								<path class="st10" d="M142.3,107.9c-5.2,5.3-8.3,12.5-8.3,20.5c0,5.4,1.5,10.5,4.1,14.8l23.2-13.9l0.3-0.7L142.3,107.9z"/>
							</g>
						</g>
						<g>
							<g>
								<polygon class="st12" points="161.7,128.7 161.4,129.4 162,129 								"/>
							</g>
						</g>
						<g>
							<g>
								<path class="st3" d="M182,150.5L162,129l-0.6,0.4L149,153.8c4.2,2.3,9.1,3.7,14.2,3.7C170.4,157.4,177,154.8,182,150.5z"/>
							</g>
						</g>
						<g>
							<g>
								<path class="st14" d="M138.2,143.3c2.6,4.4,6.4,8,10.9,10.5l12.3-24.4L138.2,143.3z"/>
							</g>
						</g>
						<g>
							<g>
								<path class="st10" d="M188.2,113.4L162,129l20,21.5c6.3-5.4,10.3-13.4,10.3-22.3C192.3,122.8,190.8,117.8,188.2,113.4z"/>
							</g>
						</g>
						<g>
							<g>
								<circle class="st13" cx="163.2" cy="128.3" r="20.3"/>
							</g>
						</g>
						<g>
							<g>
								<path class="st12" d="M163.2,145.9c-9.7,0-17.6-7.9-17.6-17.6c0-9.7,7.9-17.6,17.6-17.6c9.7,0,17.6,7.9,17.6,17.6
									C180.8,138,172.9,145.9,163.2,145.9z M163.2,111.7c-9.2,0-16.6,7.5-16.6,16.6s7.5,16.6,16.6,16.6s16.6-7.5,16.6-16.6
									S172.3,111.7,163.2,111.7z"/>
							</g>
						</g>
					</g>
					<g>
						<g>
							<g>
								<rect x="162.5" y="163.9" class="st12" width="8.7" height="2"/>
							</g>
						</g>
						<g>
							<g>
								<rect x="162.5" y="169.2" class="st4" width="12.8" height="2"/>
							</g>
						</g>
						<g>
							<g>
								<rect x="177" y="169.2" class="st4" width="6.3" height="2"/>
							</g>
						</g>
						<g>
							<g>
								<rect x="183.8" y="169.2" class="st4" width="4" height="2"/>
							</g>
						</g>
						<g>
							<g>
								<rect x="162.5" y="174.5" class="st4" width="6.1" height="2"/>
							</g>
						</g>
						<g>
							<g>
								<rect x="170.3" y="174.5" class="st4" width="15.7" height="2"/>
							</g>
						</g>
						<g>
							<g>
								<rect x="180.7" y="179.8" class="st4" width="7.2" height="2"/>
							</g>
						</g>
						<g>
							<g>
								<rect x="162.5" y="179.8" class="st4" width="17.5" height="2"/>
							</g>
						</g>
						<g>
							<g>
								<rect x="162.5" y="185.1" class="st4" width="11" height="2"/>
							</g>
						</g>
						<g>
							<g>
								<rect x="175.2" y="185.1" class="st4" width="4.7" height="2"/>
							</g>
						</g>
						<g>
							<g>
								<rect x="180.7" y="185.1" class="st4" width="2.7" height="2"/>
							</g>
						</g>
					</g>
					<g>
						<g>
							<g>
								<rect x="22.4" y="180.7" class="st12" width="22.2" height="1.4"/>
							</g>
						</g>
						<g>
							<g>
								<rect x="22.4" y="184.3" class="st4" width="26.7" height="1.4"/>
							</g>
						</g>
						<g>
							<g>
								<rect x="32.6" y="187.9" class="st4" width="16.5" height="1.4"/>
							</g>
						</g>
						<g>
							<g>
								<rect x="22.4" y="187.9" class="st4" width="7.8" height="1.4"/>
							</g>
						</g>
						<g>
							<g>
								<rect x="22.4" y="191.5" class="st4" width="26.7" height="1.4"/>
							</g>
						</g>
						<g>
							<g>
								<rect x="22.4" y="195.2" class="st4" width="26.7" height="1.4"/>
							</g>
						</g>
					</g>
					<g>
						<g>
							<g>
								<g>
									<g>
										<rect x="21.9" y="106.1" class="st2" width="1" height="65.2"/>
									</g>
								</g>
								<g>
									<g>
										<rect x="40.5" y="106.1" class="st2" width="1" height="65.2"/>
									</g>
								</g>
								<g>
									<g>
										<rect x="59" y="106.1" class="st2" width="1" height="65.2"/>
									</g>
								</g>
								<g>
									<g>
										<rect x="77.5" y="106.1" class="st2" width="1" height="65.2"/>
									</g>
								</g>
								<g>
									<g>
										<rect x="96.1" y="106.1" class="st2" width="1" height="65.2"/>
									</g>
								</g>
								<g>
									<g>
										<rect x="114.6" y="106.1" class="st2" width="1" height="65.2"/>
									</g>
								</g>
							</g>
							<g>
								<g>
									<rect x="19.4" y="132" class="st4" width="6" height="39.3"/>
								</g>
							</g>
							<g>
								<g>
									<rect x="38.1" y="145.4" class="st4" width="6" height="25.8"/>
								</g>
							</g>
							<g>
								<g>
									<rect x="56.5" y="134.1" class="st4" width="6" height="37.1"/>
								</g>
							</g>
							<g>
								<g>
									<rect x="75" y="120" class="st4" width="6" height="51.3"/>
								</g>
							</g>
							<g>
								<g>
									<rect x="93.6" y="141.6" class="st4" width="6" height="29.6"/>
								</g>
							</g>
							<g>
								<g>
									<rect x="9.7" y="172.5" class="st14" width="109" height="0.8"/>
								</g>
							</g>
							<g>
								<g>
									<polygon class="st9" points="121.5,120.3 115.1,109.2 108.7,120.3 112.1,120.3 112.1,171.3 118.1,171.3 118.1,120.3 
																			"/>
								</g>
							</g>
						</g>
						<g>
							<g>
								<g>
									<path class="st14" d="M17.5,168.1c0,0.4-0.3,0.8-0.8,0.8h-6.3c-0.4,0-0.8-0.3-0.8-0.8l0,0c0-0.4,0.3-0.8,0.8-0.8h6.3
										C17.2,167.3,17.5,167.6,17.5,168.1L17.5,168.1z"/>
								</g>
							</g>
							<g>
								<g>
									<path class="st14" d="M17.5,157.2c0,0.4-0.3,0.8-0.8,0.8h-6.3c-0.4,0-0.8-0.3-0.8-0.8l0,0c0-0.4,0.3-0.8,0.8-0.8h6.3
										C17.2,156.4,17.5,156.8,17.5,157.2L17.5,157.2z"/>
								</g>
							</g>
							<g>
								<g>
									<path class="st14" d="M17.5,146.3c0,0.4-0.3,0.8-0.8,0.8h-6.3c-0.4,0-0.8-0.3-0.8-0.8l0,0c0-0.4,0.3-0.8,0.8-0.8h6.3
										C17.2,145.6,17.5,145.9,17.5,146.3L17.5,146.3z"/>
								</g>
							</g>
							<g>
								<g>
									<path class="st14" d="M17.5,135.5c0,0.4-0.3,0.8-0.8,0.8h-6.3c-0.4,0-0.8-0.3-0.8-0.8l0,0c0-0.4,0.3-0.8,0.8-0.8h6.3
										C17.2,134.7,17.5,135.1,17.5,135.5L17.5,135.5z"/>
								</g>
							</g>
							<g>
								<g>
									<path class="st14" d="M17.5,124.6c0,0.4-0.3,0.8-0.8,0.8h-6.3c-0.4,0-0.8-0.3-0.8-0.8l0,0c0-0.4,0.3-0.8,0.8-0.8h6.3
										C17.2,123.9,17.5,124.2,17.5,124.6L17.5,124.6z"/>
								</g>
							</g>
							<g>
								<g>
									<path class="st14" d="M17.5,113.8c0,0.4-0.3,0.8-0.8,0.8h-6.3c-0.4,0-0.8-0.3-0.8-0.8l0,0c0-0.4,0.3-0.8,0.8-0.8h6.3
										C17.2,113,17.5,113.3,17.5,113.8L17.5,113.8z"/>
								</g>
							</g>
							<g>
								<g>
									<path class="st14" d="M17.5,102.9c0,0.4-0.3,0.8-0.8,0.8h-6.3c-0.4,0-0.8-0.3-0.8-0.8l0,0c0-0.4,0.3-0.8,0.8-0.8h6.3
										C17.2,102.1,17.5,102.5,17.5,102.9L17.5,102.9z"/>
								</g>
							</g>
						</g>
					</g>
				</g>
			</g>
			<g>
				<g>
					<g>
						<rect x="435.9" y="33.6" class="st13" width="121.7" height="80.4"/>
					</g>
				</g>
				<g>
					<g>
						<g>
							<g>
								<g>
									<rect x="447.7" y="70.9" class="st10" width="10.5" height="29.4"/>
								</g>
							</g>
							<g>
								<g>
									<rect x="460.8" y="79.8" class="st10" width="10.5" height="20.5"/>
								</g>
							</g>
							<g>
								<g>
									<rect x="474" y="59.4" class="st10" width="10.5" height="41"/>
								</g>
							</g>
							<g>
								<g>
									<rect x="487.1" y="70.9" class="st10" width="10.5" height="29.4"/>
								</g>
							</g>
							<g>
								<g>
									<rect x="500.3" y="59.4" class="st10" width="10.5" height="41"/>
								</g>
							</g>
							<g>
								<g>
									<rect x="513.5" y="62.6" class="st10" width="10.5" height="37.7"/>
								</g>
							</g>
							<g>
								<g>
									<rect x="526.6" y="54.5" class="st10" width="10.5" height="45.9"/>
								</g>
							</g>
						</g>
						<g>
							<g>
								<g>
									<rect x="447.7" y="97.4" class="st11" width="10.5" height="2.9"/>
								</g>
							</g>
							<g>
								<g>
									<rect x="460.8" y="88.6" class="st11" width="10.5" height="11.8"/>
								</g>
							</g>
							<g>
								<g>
									<rect x="474" y="94.4" class="st11" width="10.5" height="5.9"/>
								</g>
							</g>
							<g>
								<g>
									<rect x="487.1" y="88.6" class="st11" width="10.5" height="11.8"/>
								</g>
							</g>
							<g>
								<g>
									<rect x="500.3" y="81.5" class="st11" width="10.5" height="18.9"/>
								</g>
							</g>
							<g>
								<g>
									<rect x="513.5" y="88.6" class="st11" width="10.5" height="11.8"/>
								</g>
							</g>
							<g>
								<g>
									<rect x="526.6" y="70.9" class="st11" width="10.5" height="29.4"/>
								</g>
							</g>
						</g>
					</g>
					<g>
						<g>
							<g>
								<rect x="533.4" y="37.2" class="st12" width="16.5" height="2.4"/>
							</g>
						</g>
						<g>
							<g>
								<rect x="533.4" y="42.6" class="st4" width="8.5" height="1"/>
							</g>
						</g>
						<g>
							<g>
								<rect x="543.3" y="42.6" class="st4" width="5.4" height="1"/>
							</g>
						</g>
						<g>
							<g>
								<polygon class="st4" points="545.7,45.2 545.7,45.9 545.1,45.9 545.1,45.2 536.3,45.2 536.3,46.2 549.4,46.2 549.4,45.2 
																	"/>
							</g>
						</g>
						<g>
							<g>
								<rect x="533.4" y="45.2" class="st4" width="2.2" height="1"/>
							</g>
						</g>
						<g>
							<g>
								<rect x="549.9" y="45.2" class="st4" width="2.1" height="1"/>
							</g>
						</g>
					</g>
					<g>
						<g>
							<g>
								<path class="st12" d="M456.2,52.8h-6.4c-0.6,0-1-0.5-1-1l0,0c0-0.6,0.5-1,1-1h6.4c0.6,0,1,0.5,1,1l0,0
									C457.2,52.3,456.7,52.8,456.2,52.8z"/>
							</g>
						</g>
						<g>
							<g>
								<path class="st12" d="M469.3,52.8h-6.4c-0.6,0-1-0.5-1-1l0,0c0-0.6,0.5-1,1-1h6.4c0.6,0,1,0.5,1,1l0,0
									C470.3,52.3,469.8,52.8,469.3,52.8z"/>
							</g>
						</g>
						<g>
							<g>
								<path class="st12" d="M482.4,52.8H476c-0.6,0-1-0.5-1-1l0,0c0-0.6,0.5-1,1-1h6.4c0.6,0,1,0.5,1,1l0,0
									C483.4,52.3,483,52.8,482.4,52.8z"/>
							</g>
						</g>
						<g>
							<g>
								<path class="st12" d="M495.6,52.8h-6.4c-0.6,0-1-0.5-1-1l0,0c0-0.6,0.5-1,1-1h6.4c0.6,0,1,0.5,1,1l0,0
									C496.6,52.3,496.1,52.8,495.6,52.8z"/>
							</g>
						</g>
						<g>
							<g>
								<path class="st12" d="M508.8,52.8h-6.4c-0.6,0-1-0.5-1-1l0,0c0-0.6,0.5-1,1-1h6.4c0.6,0,1,0.5,1,1l0,0
									C509.8,52.3,509.3,52.8,508.8,52.8z"/>
							</g>
						</g>
						<g>
							<g>
								<path class="st12" d="M521.9,52.8h-6.4c-0.6,0-1-0.5-1-1l0,0c0-0.6,0.5-1,1-1h6.4c0.6,0,1,0.5,1,1l0,0
									C522.9,52.3,522.5,52.8,521.9,52.8z"/>
							</g>
						</g>
						<g>
							<g>
								<path class="st12" d="M534.8,52.8h-6.4c-0.6,0-1-0.5-1-1l0,0c0-0.6,0.5-1,1-1h6.4c0.6,0,1,0.5,1,1l0,0
									C535.9,52.3,535.4,52.8,534.8,52.8z"/>
							</g>
						</g>
					</g>
				</g>
			</g>
		</g>
	</g>
	<g>
		<g>
			<g>
				<g>
					<g>
						<g>
							<g>
								<path class="st12" d="M106.7,247.7c0.4,1.1,0.1,2.3,0.7,3.3c0.5,0.9,1.5,1.3,2.5,1.4c1,0,2-0.3,2.9-0.6
									c1.7-0.6,3.4-1.3,5.1-2.1c1.2-0.6,2.4-1.2,3.2-2.3c0.8-1.2,0.9-2.7,1-4.1c0.4-6.4,1.4-12.7,2.8-19c0.4-1.5,0.8-3.1,0.6-4.7
									c-0.1-1.6-0.9-3.2-2.2-4c-0.9-0.5-1.9-0.6-3-0.5c-1.4,0-2.8,0.3-3.8,1.2c-1.6,1.3-2,3.4-2.5,5.3c-1.2,4.6-3.5,8.9-6.7,12.5
									c-1.3,1.4-2.7,2.8-3.5,4.5c-0.9,1.7-1.2,3.9-0.1,5.5C104.5,245.5,106.1,246.2,106.7,247.7z"/>
							</g>
						</g>
						<g>
							<g>
								<path class="st2" d="M116.6,246.5c-0.1,1.4-0.5,2.8-1.4,3.7c-1,1-2.5,1.4-3.9,1.7c-1.2,0.3-2.5,0.5-3.6,0
									c-1.2-0.6-1.8-2-2.3-3.2c-0.5-1.4-1.1-2.8-1.2-4.3s0.1-3.1,1.1-4.2c0.8-1,2-1.5,3.2-1.7c2.1-0.3,4.3,0.5,5.8,2.1
									C115.9,242.2,116.7,244.3,116.6,246.5z"/>
							</g>
						</g>
						<g>
							<g>
								<g>
									<g>
										<g>
											<path class="st15" d="M110.9,252c-2.3,0.8-4.7-0.1-6.8-1.3c-2.5-1.5-4.8-3.6-6.5-6c2.3-1,4.1-3.3,4.7-5.9
												c1.8,1,4,1.2,6,1.7s4.1,1.3,5.4,3.1c0.9,1.4,1.2,3.3,0.7,5C113.7,250.1,112.4,251.4,110.9,252z"/>
										</g>
									</g>
								</g>
							</g>
						</g>
						<g>
							<g>
								<g>
									<g>
										<g>
											<path class="st16" d="M113.5,243.5c-1.2-1.8-3.3-2.6-5.4-3.1c-2-0.5-4.1-0.7-6-1.7c-0.4,2.1-1.6,3.9-3.3,5.1
												c4.2,2.9,11,2.4,12.9,6.1c0.3,0.4,0.4,0.8,0.5,1.3c0.9-0.7,1.6-1.6,1.9-2.7C114.7,246.8,114.5,244.9,113.5,243.5z"/>
										</g>
									</g>
								</g>
							</g>
						</g>
						<g>
							<g>
								
									<rect x="101.8" y="209" transform="matrix(0.9685 -0.2491 0.2491 0.9685 -55.0516 33.5911)" class="st2" width="6.8" height="50.6"/>
							</g>
						</g>
						<g>
							<g>
								<g>
									<g>
										<g>
											<path class="st15" d="M96.1,236.3c0-0.6,0.1-1.3,0.2-1.9c0.6-2.3,3-7.2,3.1-9.6c2.2,3,0.7,5.4,0.8,6.6
												c1.2,0,2.3,0,3.5,0.2c0.4,0.1,0.8,0.3,0.9,0.7c0,0.3-0.1,0.6-0.3,0.7c-0.2,0.2-0.5,0.2-0.7,0.3c0.4,0.2,0.8,0.4,1,0.8
												c0.3,0.3,0.5,0.8,0.4,1.3c-0.1,0.4-0.6,0.8-1,0.6c0.3,0.3,0.7,0.6,0.8,1.1c0.1,0.5-0.3,1-0.7,0.9c0.4,0.3,0.4,1,0.2,1.5
												c-0.3,0.5-0.7,0.8-1,1.3c-0.6,0.8-0.9,1.7-1.4,2.6c-0.5,0.9-1.1,1.7-2.1,1.9s-1.9-0.5-2.6-1.2c-0.3-0.3-0.7-0.7-0.9-1.1
												c-0.3-0.6-0.3-1.2-0.3-1.8C96,239.7,96,238,96.1,236.3z"/>
										</g>
									</g>
								</g>
							</g>
						</g>
						<g>
							<g>
								<g>
									<g>
										<g>
											<path class="st16" d="M104.6,234.2c-0.3-0.3-0.7-0.6-1-0.8c0.3-0.1,0.5-0.1,0.7-0.3s0.4-0.4,0.3-0.7
												c-0.1-0.4-0.5-0.6-0.9-0.7c-0.9-0.2-1.9-0.2-2.9-0.2c1.5,4.8,1.7,9.7-1.1,13.9l0,0c0.9-0.2,1.6-1,2.1-1.9
												s0.8-1.9,1.4-2.6c0.3-0.4,0.8-0.8,1-1.3c0.3-0.5,0.3-1.2-0.2-1.5c0.4,0.1,0.8-0.5,0.7-0.9c-0.1-0.5-0.4-0.8-0.8-1.1
												c0.4,0.2,0.9-0.2,1-0.6C105.1,235,104.9,234.5,104.6,234.2z"/>
										</g>
									</g>
								</g>
							</g>
						</g>
						<g>
							<g>
								<g>
									<path class="st2" d="M104.4,236.5c-1.1-0.6-2.5-1-3.8-1V235c1.4,0,2.8,0.4,4,1.1L104.4,236.5z"/>
								</g>
							</g>
							<g>
								<g>
									<path class="st2" d="M104.4,238.3c-1.2-0.5-2.5-0.8-3.9-0.8V237c1.4,0.1,2.8,0.3,4.1,0.9L104.4,238.3z"/>
								</g>
							</g>
							<g>
								<g>
									<path class="st2" d="M103.5,241.3c-0.6-0.2-1-0.7-1.1-1.3c0-0.1,0-0.2-0.1-0.2c0,0-0.1,0-0.2,0c-0.5,0-1,0-1.5,0.1
										l-0.1-0.5c0.5-0.1,1-0.1,1.6-0.1c0.1,0,0.3,0,0.5,0.2c0.2,0.1,0.2,0.3,0.2,0.5c0.1,0.5,0.4,0.8,0.8,1L103.5,241.3z"/>
								</g>
							</g>
						</g>
					</g>
				</g>
				<g>
					<g>
						<g>
							<g>
								<g>
									<g>
										<g>
											<path class="st15" d="M127.1,192.1c2.1-0.2,4.7-1.6,6.7-2.2c0.6,2.7,1.9,9.6,3.7,12.8l0.7,1c-4.9,3.8-10,5.6-15.9,7.2
												C129.1,207.2,126.8,198.7,127.1,192.1z"/>
										</g>
									</g>
								</g>
							</g>
						</g>
						<g>
							<g>
								<g>
									<g>
										<g>
											<path class="st16" d="M132.8,190.2c-1.8,0.7-3.9,1.7-5.7,1.9c-0.3,6.6,2,15.1-4.8,18.9c2.4-0.7,4.7-1.4,6.9-2.2
												C131.7,203,133,196.7,132.8,190.2z"/>
										</g>
									</g>
								</g>
							</g>
						</g>
						<g>
							<g>
								<g>
									<g>
										<g>
											<path class="st2" d="M132.8,190.1c-1.9,0.7-4.2,1.8-6.1,2c0.1,2.8,0.5,6,0.4,9C131.8,200.1,132.5,194.8,132.8,190.1z"/>
										</g>
									</g>
								</g>
							</g>
						</g>
						<g>
							<g>
								<path class="st3" d="M125.2,204.9c-1.2,0.6-2.5,1.3-3.3,2.5c-1.3,1.9-1.2,4.4-1.9,6.6c2.7-2.8,6.2-4.7,9.8-6
									c3.6-1.3,7.4-2.1,11.3-2.7c0.2-0.9-0.4-1.9-1.2-2.4s-1.8-0.6-2.8-0.7C133,202,128.9,203.1,125.2,204.9z"/>
							</g>
						</g>
					</g>
					<g>
						<g>
							<g>
								<g>
									<g>
										<path class="st15" d="M134.2,181c-2-2.4-4.6-3.9-7.6-4.4h-1.9c-1.2,1.4-1.9,1.5-2.8,3.1l-0.3,1.2
											c-0.2,0.8-0.7,1.8-1.6,2.1c-1.1,0.4-2,1.1-3,1.8c-0.4,0.3-0.7,0.6-0.7,1.1c0,0.4,0.3,0.6,0.5,0.9c0.5,0.5,1.1,1.1,1.6,1.6
											c-0.2,1.8,0.1,3.7,0.2,5.5c0,1,0,2.2,0.6,3s1.5,1,2.4,1.2c3.5,0.6,7.2-0.4,10.2-2.5c2-1.4,3.7-3.3,4.4-5.7
											C137.2,186.8,136.2,183.4,134.2,181z"/>
									</g>
								</g>
							</g>
							<g>
								<g>
									<g>
										<path class="st16" d="M134.2,181c-2-2.4-4.6-3.9-7.6-4.4h-1.9c-1.2,1.4-1.9,1.5-2.8,3.1l-0.2,0.7
											c0.3,5.5,6.1,11.3,7.6,16.8c0.9-0.4,1.8-0.9,2.6-1.4c2-1.4,3.7-3.3,4.4-5.7C137.2,186.8,136.2,183.4,134.2,181z"/>
									</g>
								</g>
							</g>
							<g>
								<g>
									<g>
										<path class="st13" d="M121.6,180.8c0.1-0.3,0.1-0.6,0.1-0.8L121.6,180.8z"/>
									</g>
								</g>
							</g>
						</g>
						<path class="st2" d="M146.8,176.1c-0.7-1.4-1.5-2.7-2.4-4.1c-0.4-0.6-0.9-1.3-1.6-1.4c-0.7-0.1-1.4,0.3-1.9,0.8
							c-0.6,0.4-1.2,0.9-1.8,1.3c-0.9-0.5-1.9-1.1-2.7-1.4c-2.9-1-6.1-0.9-8.8,0.4l-2.7-0.9c-1.7,1.1-2.4,3.3-2.7,5.4
							c-0.4,3.6,0.6,7.3,2.4,10.3s5.1,6.8,8.1,8.4c1.7,0.9,3.1,0.4,4.8-0.2c0.2-0.1,0.3-0.1,0.4-0.2c0.8-0.3,1.7-0.7,2.4-1.2
							c2.3-1.6,4-3.7,5.6-6c1.3-2,2.6-4.2,2.5-6.5C148.3,179.2,147.6,177.6,146.8,176.1z"/>
						<g>
							<g>
								<path class="st11" d="M125.2,179c0,1.3,0.4,2.6,1.1,3.8c0.1-0.9,0.2-1.9,0.3-2.8c0.6,0.6,1.3,1,2.1,1.3
									c0.1-0.6,0.3-1.2,0.4-1.8c0.3,0.5,0.8,1,1.4,1.2c0.2-0.4,0.3-0.8,0.5-1.1c0.2,0.3,0.6,0.6,1,0.5c0.1-0.3,0.2-0.7,0.3-1
									c0.1,0.5,0.6,0.9,1.1,0.7c0.5-0.1,0.7-0.8,0.5-1.2c0.4,0.3,0.7,0.5,1.1,0.8c0.2-0.2,0.2-0.5,0-0.7c1.4,0.4,3,0.4,4.4,0.1
									c-1.3-1-2.3-2.3-2.9-3.9c0.1,0.6-0.2,1.2-0.8,1.5c-0.5,0.3-1.2,0.3-1.7-0.1c-0.4,0.4-0.8,0.8-1.1,1.3
									c-0.4-0.4-1-0.6-1.5-0.5c-0.6,0-1.1,0.3-1.6,0.4c-1.7,0.4-3.6,0.2-5.1-0.7c-0.7,2.3-0.4,4.9,0.7,7
									C124.9,182.2,124.8,180.6,125.2,179z"/>
							</g>
						</g>
						<g>
							<g>
								<path class="st9" d="M139.5,172.9c0.2,1.7,0.6,3.5,1.1,5.1c-1.4-0.7-2-2.2-2.5-3.7c-0.1-0.4-0.3-0.8-0.1-1.2
									C138.3,172.3,139,173.8,139.5,172.9z"/>
							</g>
						</g>
					</g>
				</g>
				<g>
					<g>
						<g>
							<g>
								<g>
									<g>
										<g>
											<path class="st15" d="M97.5,382c4.8-2.7,7.9-7.2,10.5-11.9c3.2-39.4,0-36.9,1.6-54h12.6c0.5,10.7,0.3,20.5-2.1,30.6
												c-1.8,7.9-3.4,13.9-5.2,23.3c-0.3,1.8-0.7,4.3-0.3,6.1c0.3,1.3,0.5,2.5-0.1,3.5c-1.5,2.3-3,1.8-5.6,2.8
												c-3.1,1.1-2.5,3.5-8.8,3.7c-1.2,0-2.5,0.1-3.5-0.7c-0.4-0.3-0.7-0.7-0.8-1.2C95.5,383.2,96.6,382.5,97.5,382z"/>
										</g>
									</g>
								</g>
							</g>
						</g>
						<g>
							<g>
								<g>
									<g>
										<g>
											<path class="st16" d="M116.8,360.8c1.1-4.8,2.1-9,3.3-14c2.4-10.2,2.6-19.9,2.1-30.6h-12.6c-1.5,15.8,1.1,14.8-1,45.5
												C112.8,364.1,115.2,362.5,116.8,360.8z"/>
										</g>
									</g>
								</g>
							</g>
						</g>
						<g>
							<g>
								<g>
									<path class="st2" d="M107.5,380.5c-1.3,1-2.7,1.8-4.2,2.1c-1.5,0.4-3.1,0.2-4.5-0.5c-0.2-0.1-0.4-0.2-0.6-0.3
										c0.3-0.3,0.7-0.6,1-0.8c0.1-0.1,0.3-0.2,0.4-0.2c0.2,0,0.3,0.1,0.4,0.2c0.6,0.3,1.3,0.3,1.9,0.3
										C103.9,381.3,105.8,381.3,107.5,380.5z"/>
								</g>
							</g>
						</g>
						<g>
							<g>
								<g>
									<g>
										<g>
											<path class="st9" d="M97.5,382c0.5-0.3,0.9-0.6,1.3-0.9c1.2,1.1,3,1.5,4.8,1.3c4.1-0.5,7.7-3.5,11.1-6
												c0.3,1.2,0.4,2.3-0.2,3.2c-1.5,2.3-3,1.8-5.6,2.8c-3.1,1.1-2.5,3.5-8.8,3.7c-1.2,0-2.5,0.1-3.5-0.7
												c-0.4-0.3-0.7-0.7-0.8-1.2C95.5,383.2,96.6,382.5,97.5,382z"/>
										</g>
									</g>
								</g>
							</g>
						</g>
					</g>
					<g>
						<g>
							<g>
								<g>
									<path class="st3" d="M108.9,278.1c0.2,6-0.5,13.3-0.7,19.3c-0.2,6.1-1,12.2-1,18.3c-0.1,14.4,3.4,29,0.4,42.9
										c5.3,1.8,11.1,1.5,16.3-0.7c1.9-22.8,4.4-53.4,8.2-78.1C125.2,280.3,115.4,281,108.9,278.1z"/>
								</g>
							</g>
						</g>
						<g>
							<g>
								<g>
									<path class="st2" d="M130.3,283.6c-1.2,0.1-2.3,0-3.5-0.1c0.2,1.3,0.3,2.6-0.2,4.2c-3.6,10.1-10.1,25.1-10.1,34.2
										c0,13.3,0,23.8-0.2,38c2.7-0.1,5.2-0.8,7.7-1.9C125.9,335.1,126.5,308.3,130.3,283.6z"/>
								</g>
							</g>
						</g>
					</g>
				</g>
				<g>
					<g>
						<g>
							<g>
								<g>
									<g>
										<g>
											<path class="st15" d="M126.6,386l2.6-2.1c1.8-2.6,2.4-5.3,2-8.5c-2.2-17.4-7.9-38.9-10.6-56.1h15.6
												c2.3,18.1,4.9,39.7,1.4,56.8c-0.4,2.1-0.5,4.2-0.2,6.3c0.2,1.4,0.4,2.7,0.5,4.1c0.1,1.3,0.2,2.8-0.5,3.7
												c-0.6,0.7-2.7,0.3-4.4,1.1c-4.4,2.1-9.4,2.5-12.5,0.9C118.7,390.7,122.6,388.3,126.6,386z"/>
										</g>
									</g>
								</g>
							</g>
						</g>
						<g>
							<g>
								<g>
									<g>
										<g>
											<path class="st16" d="M136.2,319.2h-15.6c2.6,16.6,8.1,37.2,10.4,54.3c3.3,1.4,6.2-0.5,7.5-2.3
												C140.6,354.9,138.3,335.6,136.2,319.2z"/>
										</g>
									</g>
								</g>
							</g>
						</g>
						<g>
							<g>
								<g>
									<path class="st2" d="M136.9,385.3c0.1-0.4,0.1-0.7,0.1-1.1c-0.3,0.5-0.5,1.1-0.7,1.6c0.1,0.1,0.3,0,0.4-0.1
										S136.8,385.4,136.9,385.3z"/>
								</g>
							</g>
						</g>
						<g>
							<g>
								<g>
									<path class="st2" d="M128.4,390.6c-0.8,0.2-1.6,0.5-2.4,0.5c-1.5,0-3-0.9-3.8-2.3c0.4-0.3,0.9-0.6,1.3-1
										c1.8,1.5,4.3,1.5,6.5,1.1c2.2-0.4,4.4-1.3,6.6-1.5C133.9,388.5,131.2,389.7,128.4,390.6z"/>
								</g>
							</g>
						</g>
						<g>
							<g>
								<g>
									<g>
										<g>
											<path class="st9" d="M122.8,388.3c0.6,0.8,1.5,1.4,2.7,1.7c1.8,0.5,4.4-0.3,6-1c2-0.8,4.2-2.1,6.3-2.6
												c0.1,1.3,0.2,2.8-0.5,3.7c-0.6,0.7-2.7,0.3-4.4,1.1c-4.4,2.1-9.4,2.5-12.5,0.9C119.3,391.1,120.6,389.8,122.8,388.3z"/>
										</g>
									</g>
								</g>
							</g>
						</g>
					</g>
					<g>
						<g>
							<g>
								<g>
									<path class="st3" d="M140.9,281c2.7,10-0.9,20.5-2.2,30.8c-2.2,18.2,7.6,39.2,4.1,57.2c-5.4,2.6-11.2,4.7-17.3,1.5
										c1-10.8-2.2-25-4-35.7c-0.9-5.5-2.4-10.9-2.9-16.4c-1.2-13.6,3.3-27.7-0.3-40.8c6.4-0.3,12.8-0.6,19.1-0.9L140.9,281z"/>
								</g>
							</g>
						</g>
					</g>
					<g>
						<g>
							<path class="st2" d="M134.5,285.3c1.2-0.2,2.4-0.4,3.4-1s1.8-1.8,1.6-2.9c-9.8-0.6-19.6-1.6-29.4-3c-0.5,0.8-0.4,2,0.1,2.8
								c0.5,0.9,1.4,1.5,2.2,2c3.2,1.9,7,2.8,10.8,3C127,286.3,130.8,285.9,134.5,285.3z"/>
						</g>
					</g>
					<g>
						<g>
							<g>
								<g>
									<path class="st2" d="M138.8,311.8c1.3-10.3,4.8-20.8,2.2-30.8l-3.4-4.4c-1.2,0.1-2.3,0.1-3.5,0.2c2.4,3.9,4.3,8,3.7,12.1
										c-4,23,0,43,3,65c1,5.4,1.2,10.7,0.6,15.9c0.5-0.2,1-0.5,1.6-0.7C146.4,351,136.5,330,138.8,311.8z"/>
								</g>
							</g>
						</g>
					</g>
				</g>
				<g>
					<g>
						<g>
							<g>
								<g>
									<g>
										<path class="st9" d="M144.3,205.7c2.5,2.6,3.2,6.8,2.8,10.5c-0.6,5.2-2.4,10.1-4.9,14.6c-2.3,4.1-4.1,9.1-2.9,15
											c0.6,3,1.7,5.7,2.8,8.5c2.7,7.2,4.1,14.9,4.1,22.7c0,1.3-0.1,2.6-0.9,3.6c-0.9,1.1-2.3,1.2-3.6,1.3c-9.3,0.5-22.4,1-33-3
											c0.5-14.5,6.3-26.8,6.8-41.3c0.3-6.9-3.2-11.7-0.5-18c2.5-5.6,10.6-12.5,15.9-15C135.2,202.5,140.9,202.1,144.3,205.7z"/>
									</g>
								</g>
							</g>
						</g>
					</g>
				</g>
				<g>
					<g>
						<path class="st12" d="M118.3,258.8c0.3-7.6,2.9-15,2.6-22.7c7.4-2.8,14.2-7,20-12.3c-3.3,7.8-6.8,16.2-5.4,24.6
							c0.8,5.4,3.5,10.2,5.6,15.2c2,5,3.4,12.1,1.6,17.2c-8.9,1-17,1.1-25-1.2C119.6,272.9,118,265.7,118.3,258.8z"/>
					</g>
				</g>
				<g>
					<g>
						<path class="st2" d="M117.1,241.5c0.2-2,0.6-4,1.8-5.6c1.1-1.4,2.7-2.4,4.3-3.2c6.3-3.4,12.8-6.6,19.5-9.4
							c-4.6,10.9-12,20.7-21.3,28.1c-0.8,0.6-1.8,1.3-2.8,1c-1.3-0.4-1.6-2-1.7-3.3C116.8,246.6,116.9,244,117.1,241.5z"/>
					</g>
				</g>
				<g>
					<g>
						<path class="st2" d="M111,279.8c-1.1-6.5,0.6-13,2.3-19.3c0.7-2.5,1.4-5.1,1.9-7.6c0.9-4.3,1.2-8.8,1.6-13.1
							c0.3-3.9,0.6-7.9,1.3-11.7c1.2-7,4.3-16.4,12.1-21.4l0.3,0.4c-7.6,4.9-10.6,14.2-11.8,21.1c-0.7,3.9-1,7.8-1.3,11.7
							c-0.3,4.3-0.7,8.8-1.6,13.2c-0.5,2.5-1.2,5.1-1.9,7.6c-1.7,6.3-3.5,12.7-2.3,19.1H111z"/>
					</g>
				</g>
				<g>
					<g>
						<path class="st15" d="M141.5,206.7c-3-0.6-6.1,0.8-8.7,2.3c-3.8,2.3-7.5,5-11.2,7.6s-7.8,4.7-12.2,5
							c-6.2-7-10.1-8.7-16.1-15.4c-0.7-1-1.1-2.1-1.5-3.3c-0.6-1.8-1.1-3.7-2.1-5.3c-0.2-0.3-0.4-0.6-0.8-0.7c-0.3-0.1-0.6,0-0.9,0
							c-0.7,0-1.3-0.5-1.8-0.9c-2.1-1.6-4.2-3.3-6.3-5c-0.9,1.7,0.8,2.5,3.6,5.2c-0.6-0.1-1.7,0.9-1.6,1.6c0,0.6,0.2,1.3,0,1.9
							c-0.2,0.5-0.6,1-0.4,1.5c0.1,0.3,0.4,0.4,0.5,0.7c0.2,0.4,0,0.8,0,1.2c0,0.7,0.4,1.3,0.8,1.8c0.6,0.8,1.3,1.6,2.1,2.2
							c0.6,0.4,1.3,0.6,1.9,0.9c1.1,0.7,1.6,1.4,2.2,2.6c0.1,0.2,0.7,1.5,0.8,1.7c0,0,6.1,12,12.5,20.5c0.9,1.1,2.3,1.7,3.7,1.6
							c10.6-0.8,20.9-4.1,30.5-8.9c2.2-1.1,4.5-2.4,6.3-4.1c2.2-2,4-4.7,3.8-7.9C146.5,210.3,144.4,207.3,141.5,206.7z"/>
					</g>
				</g>
				<g>
					<g>
						<g>
							<path class="st16" d="M141.5,206.7c-3-0.6-6.1,0.8-8.7,2.3c-3.8,2.3-7.5,5-11.2,7.6s-7.8,4.7-12.2,5
								c-0.8-0.9-1.6-1.8-2.4-2.6c-0.4,0.3-0.8,0.6-1.3,0.9c-7,4-14-5-17-12c-1-1.9-4.7-2-6.8-4.7c0,0.6,0.4,1.2,0.8,1.7
								c0.6,0.8,1.3,1.6,2.1,2.2c0.6,0.4,1.3,0.6,1.9,0.9c1.1,0.7,1.6,1.4,2.2,2.6c0.1,0.2,0.7,1.5,0.8,1.7c0,0,6.1,12,12.5,20.5
								c0.9,1.1,2.3,1.7,3.7,1.6c10.6-0.8,20.9-4.1,30.5-8.9c2.2-1.1,4.5-2.4,6.3-4.1c2.2-2,4-4.7,3.8-7.9
								C146.5,210.3,144.4,207.3,141.5,206.7z"/>
						</g>
					</g>
					<g>
						<g>
							<g>
								<path class="st9" d="M138.7,205.7c-2.6,0.3-4.8,2-7,3.5c-5.3,3.7-11.1,6.6-17.2,8.5c-1.4,0.4-2.8,0.9-4,1.7
									s-2.2,2.2-2.1,3.6c0.1,1.3,0.9,2.5,0.8,3.8c-0.1,1.4-1.3,2.5-2.2,3.6c-0.9,1.1-1.7,2.7-0.9,3.9c0.5,0.7,1.4,1.1,2.3,1.3
									c1.3,0.4,2.7,0.8,3.8,1.5c1.2,0.7,2.2,1.9,2.4,3.2c0.1,0.9-0.1,1.7-0.1,2.6c0,0.9,0.2,1.8,0.9,2.3c0.4,0.3,1,0.4,1.5,0.4
									c2.6,0,4.4-2.4,6.1-4.4c5.8-6.4,14.6-9.4,20.4-15.9c2-2.2,3.5-4.8,4.2-7.7c0.6-2.9,0.3-6-1.4-8.5
									C144.5,207,141.6,205.4,138.7,205.7z"/>
							</g>
						</g>
						<g>
							<g>
								<path class="st2" d="M109.6,220.8l-0.4-0.3c1-1.6,2.9-2.7,5.5-3.4c0.8-0.2,1.7-0.3,2.5-0.5c1.3-0.2,2.6-0.4,3.8-0.8
									c2.7-0.9,5-2.7,7-4.4l0.7-0.6c1.9-1.6,3.8-3.3,6.1-4.4c2.9-1.5,5.9-1.7,8.3-0.7l-0.2,0.5c-2.3-0.9-5.2-0.7-7.9,0.7
									c-2.2,1.1-4.1,2.7-6,4.3l-0.7,0.6c-2,1.7-4.4,3.6-7.2,4.5c-1.3,0.4-2.6,0.6-3.9,0.8c-0.8,0.1-1.7,0.3-2.5,0.5
									C112.3,218.2,110.6,219.3,109.6,220.8z"/>
							</g>
						</g>
						<g>
							<g>
								<path class="st12" d="M119.3,222.7c-2.3,1.2-4.8,1.8-7.4,1.8c-0.7,0-1.6,0-2.1,0.5c0.4,1.3,0.2,2.7-0.5,3.9
									c1.1-1.4,2.9-1.8,4.5-2.5C115.9,225.6,117.8,224.3,119.3,222.7z"/>
							</g>
						</g>
						<g>
							<g>
								<path class="st12" d="M130.5,225.9c-4.9,4.6-10.1,8.9-15.6,12.8c-1.7-1.8-4.1-3-6.5-3.3c4.1-0.2,8-1.5,11.7-3.3
									C123.7,230.4,127.1,228.2,130.5,225.9z"/>
							</g>
						</g>
						<g>
							<g>
								<path class="st12" d="M118.9,244.3c2.8-1.7,4.9-4.4,7.3-6.6c2.6-2.3,5.5-3.9,8.5-5.7s5.9-4.1,6.9-7.4
									c-2.1,3.4-5.4,5.8-8.9,7.7s-7.1,3.5-10.3,5.8c-2.5,1.8-4.6,3.9-6.6,6.2c0.3,0.5,1,0.7,1.5,0.6
									C117.9,244.9,118.5,244.6,118.9,244.3z"/>
							</g>
						</g>
					</g>
				</g>
			</g>
		</g>
		<g>
			<g>
				<path class="st16" d="M118.3,187c0.2,0.1,0.4,0.1,0.6,0.3s0.3,0.4,0.2,0.6c-0.1,0.2-0.4,0.4-0.5,0.2c-0.6-0.4-1-0.9-1.5-1.5
					C117.5,186.8,117.9,186.9,118.3,187z"/>
			</g>
		</g>
	</g>
	<g>
		<g>
			<g>
				<g>
					<g>
						<g>
							<g>
								<path class="st15" d="M494.7,238.6c-0.1-0.7-0.6-1.3-0.6-2.1c0-0.5,0.2-1,0.2-1.4c0-0.8-0.4-1.4-0.7-2.1
									c-0.4-0.8-0.6-1.8-0.7-2.7c-0.5,0.2-1,0.5-1.3,1s-0.4,1.1-0.3,1.6c0.1,0.6,0.5,1.2,0.4,1.8c-0.1,0.2-0.2,0.4-0.3,0.6
									l-0.1-0.1c-0.5-0.5-1.1-0.9-1.7-1.4c-1.9-1.4-3.4-3.4-4.9-5.3c-0.2-0.3-0.6-0.6-1-0.4c-0.3,0.2-0.4,0.9-0.2,1.3
									c0.6,1.8,1.7,3.2,2.9,4.7c0.2,0.2,0.3,0.4,0.4,0.6c0.1,0.3-0.1,0.6-0.2,0.9c-0.3,0.7-0.6,1.4-0.9,2.1
									c-0.2,0.7-0.5,1.5-0.2,2.2c0.1,0.5,0.5,0.9,0.8,1.3c0.7,0.9,1.6,1.8,2.7,2c0.6,0.1,1.4,0.3,2.1,0.2c2,1.7,3.9,3.6,5.5,5.7
									c1.2-1.3,2.7-2.5,4.3-3.4c-2.1-2-4.2-4.1-6.1-6.2C494.7,239.3,494.7,238.9,494.7,238.6z"/>
							</g>
						</g>
					</g>
				</g>
				<g>
					<g>
						<path class="st16" d="M486.1,240.3c-0.3-0.7-0.2-1.5,0-2.2c0.2-1.2,0.4-2.4,0.6-3.6c0.5,0.5,1.2,0.6,1.8,0.8
							c0.6,0.2,1.3,0.5,1.6,1.1c0.1,0.2,0.1,0.4,0.1,0.7c0.1,1.2,0.3,2.4,0.4,3.7c-0.6,0.6-1.5,1-2.4,1
							C487.3,241.7,486.4,241.2,486.1,240.3z"/>
					</g>
				</g>
				<g>
					<g>
						<g>
							<g>
								<path class="st15" d="M486.3,236.4c0.4,0.3,0.8,0.6,1.2,0.8c0.2,0.1,0.5,0.3,0.7,0.2s0.4-0.4,0.4-0.6c0-0.5-0.2-1.1-0.6-1.5
									s-0.8-0.7-1.3-1c-0.2-0.1-0.5-0.3-0.7-0.3c-0.4,0-0.7,0.3-0.8,0.7c-0.1,0.4,0,0.7,0.3,1.1
									C485.7,235.9,486,236.2,486.3,236.4z"/>
							</g>
						</g>
					</g>
				</g>
				<g>
					<g>
						<g>
							<g>
								<path class="st15" d="M484.6,237.4c0.1,0.4,0.5,0.6,0.9,0.8s0.8,0.5,1.3,0.7c0.3,0.2,0.6,0.3,0.9,0.4c0.3,0.1,0.7,0,0.9-0.3
									c0.2-0.2,0.2-0.6,0.1-0.8c-0.1-0.3-0.3-0.5-0.5-0.7c-0.7-0.8-1.7-1.4-2.7-1.7c-0.2-0.1-0.4-0.1-0.5,0
									c-0.2,0.1-0.3,0.3-0.3,0.5C484.6,236.7,484.5,237.1,484.6,237.4z"/>
							</g>
						</g>
					</g>
				</g>
				<g>
					<g>
						<g>
							<g>
								<path class="st15" d="M484.8,238.8c-0.2,0.4-0.1,0.9,0.2,1.3c0.3,0.4,0.7,0.6,1.1,0.8s0.9,0.2,1.3,0.3c0.2,0,0.5,0.1,0.7,0
									c0.2,0,0.5-0.2,0.6-0.4c0.2-0.3,0-0.7-0.3-1s-0.8-0.5-1.2-0.8c-0.4-0.2-0.8-0.4-1.2-0.6c-0.2-0.1-0.5-0.2-0.7-0.2
									C485.1,238.4,484.9,238.6,484.8,238.8z"/>
							</g>
						</g>
					</g>
				</g>
			</g>
		</g>
		<g>
			<g>
				<g>
					<path class="st17" d="M554.1,260.7l-4.3-1.5c-19.1,0.8-38.5-6-52.8-18.8c-0.6-0.5-1.4-0.5-2,0c-0.9,0.8-1.7,1.6-2.3,2.6
						c-0.9,1.4-1.3,3.1-0.7,4.6c0.5,1.2,1.5,2.1,2.5,3c6.7,5.6,13.5,11.3,21,15.8s15.9,7.8,24.7,8.3c4.2,0.2,8.6-0.3,11.9-2.9
						C555.3,269.2,556.7,264,554.1,260.7z"/>
				</g>
			</g>
			<g>
				<g>
					<g>
						<path class="st14" d="M534,261.5c0,0.4-0.3,0.7-0.7,0.7s-0.7-0.3-0.7-0.7s0.3-0.7,0.7-0.7S534,261.1,534,261.5z"/>
					</g>
				</g>
				<g>
					<g>
						<path class="st14" d="M524.2,266.3c0,0.3-0.3,0.6-0.6,0.6s-0.6-0.3-0.6-0.6c0-0.3,0.3-0.6,0.6-0.6
							C524,265.8,524.2,266,524.2,266.3z"/>
					</g>
				</g>
				<g>
					<g>
						<circle class="st14" cx="523" cy="258.3" r="0.9"/>
					</g>
				</g>
				<g>
					<g>
						<path class="st14" d="M511.9,253.3c0.3,0,0.5,0.2,0.5,0.5s-0.2,0.5-0.5,0.5s-0.5-0.2-0.5-0.5S511.6,253.3,511.9,253.3z"/>
					</g>
				</g>
				<g>
					<g>
						<path class="st14" d="M506.2,253.2c0,0.4-0.3,0.7-0.7,0.7s-0.7-0.3-0.7-0.7s0.3-0.7,0.7-0.7S506.2,252.8,506.2,253.2z"/>
					</g>
				</g>
				<g>
					<g>
						<path class="st14" d="M500,245.6c0,0.3-0.3,0.6-0.6,0.6s-0.6-0.3-0.6-0.6s0.3-0.6,0.6-0.6S500,245.3,500,245.6z"/>
					</g>
				</g>
				<g>
					<g>
						<circle class="st14" cx="496.1" cy="248.5" r="0.8"/>
					</g>
				</g>
			</g>
			<g>
				<g>
					<path class="st10" d="M492.3,243.7c-0.6,1.2-0.9,2.7-0.4,4c0.5,1.2,1.5,2.1,2.5,3c6.7,5.6,13.5,11.3,21,15.8
						c7.5,4.5,15.9,7.8,24.7,8.3c4.2,0.2,8.6-0.3,11.9-2.9c1.4-1.1,2.5-2.7,3-4.5C532.3,271.1,507.3,261.7,492.3,243.7z"/>
				</g>
			</g>
			<g>
				<g>
					<path class="st10" d="M515.8,255.7c-0.6,2.1,0.1,4.5,1.8,5.9C517.6,259.5,517,257.4,515.8,255.7z"/>
				</g>
			</g>
		</g>
		<g>
			<g>
				<g>
					<g>
						<path class="st2" d="M516.2,396.7c-2,0-3.7,1.7-3.7,3.7s1.7,3.7,3.7,3.7s3.7-1.7,3.7-3.7C519.9,398.3,518.2,396.7,516.2,396.7
							z"/>
					</g>
				</g>
			</g>
			<g>
				<g>
					<path class="st2" d="M585,396.9v-0.7l0,0v-0.9c0-0.8-0.6-1.5-1.5-1.6c-4.4-0.4-17.2-1.4-22.1-2c-6-0.7-8.5-3.9-8.5-3.9h-0.8
						v-20.5h-0.8V338h-3v29.4h-0.8v20.5h-0.8c0,0-2.5,3.2-8.5,3.9c-4.9,0.6-17.8,1.6-22.1,2c-0.8,0.1-1.5,0.8-1.5,1.6v0.9h0.6v2.6
						h2.4V396l27.8-2.2c-0.6,0.5-1.2,0.9-1.8,1.3c-0.5,0.3-1,0.7-1.4,1.2c-0.2,0.2-0.3,0.5-0.4,0.8H540v6.9h6.1v-7h-1.9
						c0-0.2,0-0.4,0.1-0.5c2.4-0.3,4.7-1.4,6.5-3l31.7,2.6v0.9c-1.4,0.5-2.5,1.9-2.5,3.5c0,2,1.7,3.7,3.7,3.7s3.7-1.7,3.7-3.7
						C587.5,398.7,586.5,397.4,585,396.9z"/>
				</g>
			</g>
			<g>
				<g>
					<g>
						<path class="st18" d="M506.6,346.3c-1.9,1.6-3.6,4-2.9,6.4c0.9,3.1,5,3.6,8.2,3.5c11.8-0.2,23.6-0.4,35.4-0.6
							c7.8-0.1,16.2-0.5,22.2-5.4c4.3-3.5,6.7-8.8,8.5-14c2.6-7.5,4.5-15.3,5.1-23.2c0.4-5.3,0.2-10.9-2.2-15.7
							c-2.4-4.8-7.6-8.5-12.9-7.7c-3.7,0.5-6.9,3.1-9,6.1c-2.1,3.1-3.3,6.7-4.3,10.3c-2.6,8.7-5.1,18.1-11.9,24.1
							C532.7,338.9,516.7,337.6,506.6,346.3z"/>
					</g>
				</g>
			</g>
			<g>
				<g>
					<path class="st19" d="M506.6,343.9c-1.9,1.6-3.6,4-2.9,6.4c0.9,3.1,5,3.6,8.2,3.5c11.8-0.2,23.6-0.4,35.4-0.6
						c7.8-0.1,16.2-0.5,22.2-5.4c4.3-3.5,6.7-8.8,8.5-14c2.6-7.5,4.5-15.3,5.1-23.2c0.4-5.3,0.2-10.9-2.2-15.7
						c-2.4-4.8-7.6-8.5-12.9-7.7c-3.7,0.5-6.9,3.1-9,6.1c-2.1,3.1-3.3,6.7-4.3,10.3c-2.6,8.7-5.1,18.1-11.9,24.1
						C532.7,336.5,516.7,335.3,506.6,343.9z"/>
				</g>
			</g>
			<g>
				<g>
					<path class="st3" d="M574,297.1c2.2,0.7,3.7,2.9,4,5.2c0.4,2.3-0.1,4.6-0.7,6.9c-1.3,5.4-2.8,10.7-4.5,16
						c-2.1,6.3-4.6,12.9-9.6,17.3c-5.3,4.8-12.6,6.5-19.7,7.5c-8.3,1.2-16.7,1.5-25.1,1.3c-2.5-0.1-5.4-0.4-6.6-2.6
						c-0.8-1.4-0.7-3.1,0-4.6c0.7-1.5,1.9-2.6,3.1-3.6c6.8-5.5,15.7-7.5,23.2-12c6.4-3.9,11.6-9.8,14.8-16.7
						c1.3-2.9,2.3-5.9,3.7-8.7c1.4-2.8,3.3-5.5,6-7.1s6.4-1.9,9-0.1L574,297.1z"/>
				</g>
			</g>
		</g>
		<g>
			<g>
				<g>
					<g>
						<g>
							<g>
								<path class="st15" d="M486.6,392.8c2.1-0.9,5.6-2,7.7-3.9c3.2-3,3-4.4,3.3-7.5c0.3-3.6-0.5-8.1-0.8-11.7
									c-0.1-1.2-0.2-2.4-0.4-3.5h10.2c-1.5,8-1.4,16.2,0.1,24.1c0.3,1.6,0.6,3.4-0.4,4.6c-0.9,1.1-2.5,1.2-3.8,1
									c-1.4-0.2-2.3-0.5-3.6-0.3c-4.4,0.7-8.8,2.1-12.9,1c-0.8-0.2-2.2-0.7-2.4-1.5C483.3,394.2,485.7,393.2,486.6,392.8z"/>
							</g>
						</g>
					</g>
				</g>
				<g>
					<g>
						<g>
							<g>
								<path class="st16" d="M506.7,390.3c-1.6-7.9-1.6-16.2-0.1-24.1h-10.2c0.1,1.2,0.2,2.3,0.4,3.5c0.1,1.4,0.3,3,0.5,4.6
									c3.8,1.4,4.8,6.2,6.5,9.6c2,5-3,8-7,9c-4,1.1-8.7,2-13.2,2.2c0,0,0,0,0,0.1c0.2,0.8,1.6,1.3,2.4,1.5c4.1,1.1,8.6-0.3,12.9-1
									c1.4-0.2,2.3,0.1,3.6,0.3c1.4,0.2,2.9,0.1,3.8-1C507.3,393.7,507,391.9,506.7,390.3z"/>
							</g>
						</g>
					</g>
				</g>
				<g>
					<g>
						<g>
							<g>
								<path class="st11" d="M487.6,397.9c-1.4-0.1-2.9-0.4-4-1.3c-0.5-0.4-1-1-0.8-1.6c0.1-0.4,0.5-0.8,0.8-1
									c1-0.7,2.2-1.3,3.4-1.6c0,0.7,0.4,1.3,1,1.6c0.6,0.4,1.2,0.5,1.9,0.6c2.9,0.4,5.9-0.1,8.8-0.8c2.9-0.7,5.8-1.5,8.7-1.8
									c0.4,1.4-0.4,3.1-1.7,3.8c-1.6,0.8-3.5,0.3-5.3,0.3c-2.1,0-4.2,0.8-6.3,1.3C491.9,398,489.7,398.1,487.6,397.9z"/>
							</g>
						</g>
					</g>
				</g>
				<g>
					<g>
						<g>
							<g>
								<path class="st10" d="M497,374.6c0-1.6-0.2-3.2-0.3-4.9c-0.1-1.2-0.2-2.4-0.4-3.5h10.2c-0.5,2.8-0.8,5.6-1,8.4H497z"/>
							</g>
						</g>
					</g>
				</g>
			</g>
			<g>
				<g>
					<g>
						<g>
							<path class="st11" d="M508.6,370.4l-11.7,0.5c-1.4,0-2.6-1.1-2.8-2.5c-2-14-5.2-23.1-2.7-35.7c0.9-4.5,5.4-8.4,9.9-9.2
								c11.9-2.2,29.8-3.8,30.9-17.1l17.5,3.3c0.4,6.1,0.4,20.4-5.3,28.7l-37.5,2.6C507.3,352.5,507.6,358.1,508.6,370.4z"/>
						</g>
					</g>
				</g>
			</g>
			<g>
				<g>
					<g>
						<g>
							<path class="st20" d="M548.9,326c-15.4,2.3-32.1,0.6-47.2,5.9c-3,2-7,5-6,9c1.2,10.3,1.7,20.2,2.5,30l10.3-0.5
								c-1.1-12.3-1.3-17.9-1.8-29.4l37.5-2.6C546.7,335,548.1,330.5,548.9,326z"/>
						</g>
					</g>
				</g>
			</g>
		</g>
		<g>
			<g>
				<g>
					<g>
						<g>
							<g>
								<g>
									<path class="st15" d="M494.1,403.3c1.9-1.1,5.5-2.7,7.9-4c2.6-1.4,3.6-2.8,4-5.6c0.5-3.6-0.6-9.9-0.9-13.5
										c-0.1-1.2-0.2-2.4-0.4-3.5h10.2c-0.3,8.4-1.4,16.2,0.1,24.1c0.3,1.6,0.6,3.4-0.4,4.6c-1.5,1.8-4.3,1.1-6.3,1.1
										c-2.4,0-4.9,0.1-7.3,0.4c-2.2,0.3-4.6,0.8-6.8,0.2c-0.8-0.2-1.6-0.7-1.8-1.5C492.3,404.6,493.2,403.8,494.1,403.3z"/>
								</g>
							</g>
						</g>
					</g>
					<g>
						<g>
							<g>
								<g>
									<path class="st16" d="M515.1,400.8c-1.6-7.9-0.4-15.7-0.1-24.1h-3.6c1.1,10.1,2.5,20.7,0.6,29.9c1.1-0.1,2-0.4,2.7-1.2
										C515.7,404.2,515.4,402.3,515.1,400.8z"/>
								</g>
							</g>
						</g>
					</g>
					<g>
						<g>
							<g>
								<g>
									<path class="st10" d="M505.1,385.2c0-1.6-0.3-3.5-0.5-5.1c-0.1-1.2,0.3-2.2,0.2-3.4l10.9,0.1c-0.5,2.8-0.6,5.6-0.7,8.4
										H505.1z"/>
								</g>
							</g>
						</g>
					</g>
				</g>
				<g>
					<g>
						<g>
							<g>
								<path class="st11" d="M491.1,405.9c0.6,1.3,3,2.2,4.5,2.4c1.4,0.1,2.8-0.2,4.2-0.4c2.8-0.5,5.6-0.6,8.4-0.4
									c1.3,0.1,2.7,0.2,4,0.1c1.3-0.2,3.1-0.5,4-1.5s0-3-0.8-4.1c-3,2-6,2.6-9.6,2.8c-2,0.1-4,0.4-6,0.3c-1.4,0-3.6,0.2-4-1.6
									c-0.1-0.6,0.1-0.9,0.5-1.4c-0.8-0.4-1.9,0.9-3.3,1.5c-0.5,0.2-1.4,0.5-1.8,1C490.8,404.9,490.9,405.4,491.1,405.9z"/>
							</g>
						</g>
					</g>
				</g>
			</g>
			<g>
				<g>
					<g>
						<g>
							<path class="st11" d="M514.8,381.6h-9.3c-1.6,0-3-1.2-3.2-2.8l-3.5-26.3c-0.5-3.8-1.3-8.5,0.5-11.9c1.2-2.2,2.5-4.4,4.6-5.8
								c8.6-5.9,20.7-7.5,27.4-14c3.3-3.2,3.5-7.4,4.8-12.9c6.4,1.3,15.6,3.1,20.7,7.2c2,40.1-23,24.6-39.2,32.3
								c0,10.6,0.4,21.1-0.1,31.5C517.5,380.4,516.3,381.6,514.8,381.6z"/>
						</g>
					</g>
				</g>
			</g>
			<g>
				<g>
					<path class="st20" d="M535.2,310.4c-1.2-0.5-2.7-1-3.8-0.3c-1.7,1.1-1.2,3.9-2.8,5.1c10.1,3.6,18.9,10.6,24.7,19.5
						c1.6-3.3,1-7.3-0.8-10.5s-4.6-5.7-7.5-7.9C541.9,314,538.7,312,535.2,310.4z"/>
				</g>
			</g>
			<g>
				<g>
					<g>
						<g>
							<path class="st20" d="M556.9,315c-1.4-1.2-3.2-2.1-5.2-3c5.8,22.1-17.9,35.6-38,30.8c3,11,4,23-2,33
								c-1.7,2.5-5.4,3.6-9.3,3.4c0.4,1.3,1.7,2.3,3.1,2.3h9.3c1.5,0,2.8-1.2,2.8-2.7c0.4-10.4,0.1-20.9,0.1-31.5
								C533.9,339.6,558.9,355.1,556.9,315z"/>
						</g>
					</g>
				</g>
			</g>
		</g>
		<g>
			<g>
				<g>
					<g>
						<g>
							<path class="st3" d="M528.7,312.4c0.6-0.9,0.7-3.2,1.3-4.1c5.3,0.4,9.9,3.5,13.8,7.1c3.9,3.6,7.2,7.7,11.4,11
								c0.5,0.4,1.1,0.8,1.4,1.5c0.7,1.4-0.3,3-1.2,4.2c-3-3.9-6.9-7.1-10.7-10.3C539.6,317.6,534.9,314.7,528.7,312.4z"/>
						</g>
					</g>
				</g>
			</g>
			<g>
				<g>
					<g>
						<g>
							<g>
								<path class="st17" d="M534.2,291.6c-1.3-2.5-2.4-5.1-2.7-7.9c-0.3-4,1.3-7.8,3.5-11.3c-0.1-7.7,6.1-14.1,13.8-14.1
									c3.8,0,7.7,0.4,11.5,1.1c3.6,0.7,7.3,1.9,9.6,4.7c1.8,2.1,2.4,5,2.9,7.7c2.1,13.4-12.2,27.1-14.9,56.3
									c-0.1,0.8-1,1.3-1.7,0.8c-8.2-6-18.1-19-27.3-20C531.2,306.1,533.1,299.5,534.2,291.6z"/>
							</g>
						</g>
					</g>
				</g>
				<g>
					<g>
						<path class="st10" d="M572.8,271.8c-0.4-2.7-1.1-5.6-2.9-7.7c-2.3-2.8-6-4-9.6-4.7c-1.5-0.3-2.9-0.5-4.4-0.7
							c-3.4,4.4-6.4,8.9-5.5,14.2c0.2,5.5,0.5,11,0.4,16.4c-3.2-0.2-6.3-0.4-9.5-0.6c-1.5-0.1-2.9-0.2-4.3-0.6
							c-1.4-0.4-2.7-1.3-3.5-2.5c-0.5-0.9-0.9-2-1.9-2.1c0.6,3.5,2.2,6.8,4.5,9.5c0.2,0.2,0.4,0.4,0.7,0.5c0.7,0.1,1-1,1.7-1.4
							c0.5-0.3,1.2,0,1.6,0.3c0.5,0.4,0.8,0.8,1.4,1.1c1.2,0.6,2.7-0.1,4,0.1c2,0.2,3.4,2.1,5,3.4c-0.6,7.6-2.2,15-5.7,21.6
							c4,3.7,7.9,7.7,11.5,10.3c0.7,0.5,1.6,0,1.7-0.8C560.6,299,574.9,285.3,572.8,271.8z"/>
					</g>
				</g>
				<g>
					<g>
						<path class="st2" d="M542.4,260.7c-0.6,0.8-0.7,1.8-0.7,2.8c-0.1,2.5,0.3,5.2,2.1,6.9c1,1,2.4,1.6,3.8,1.8
							c1.4,0.2,2.9,0,4.3-0.3c3.7-0.8,7.2-2.7,9.9-5.4c1.1-1.1,2.1-2.6,1.7-4.1c-0.4-1.3-1.7-2-2.9-2.5c-5.1-2.2-11.1-2.8-16.2-0.6
							C543.7,259.6,542.9,260,542.4,260.7z"/>
					</g>
				</g>
				<g>
					<g>
						<g>
							<path class="st14" d="M538.7,297.5c-0.2-0.3-0.6-0.5-0.9-0.4c-0.3,0.1-0.6,0.5-0.5,0.9s0.6,0.7,1,0.6
								C538.7,298.4,538.9,297.9,538.7,297.5z"/>
						</g>
					</g>
					<g>
						<g>
							<path class="st14" d="M538.2,277.7c0.4-0.3,0.4-1,0-1.3c-0.4-0.2-1.1,0.1-1.1,0.6C537.1,277.6,537.8,278,538.2,277.7z"/>
						</g>
					</g>
					<g>
						<g>
							<path class="st14" d="M546.7,282.6c0.3,0.4,1.1,0.3,1.3-0.2s-0.2-1.1-0.7-1.1C546.7,281.3,546.3,282.1,546.7,282.6z"/>
						</g>
					</g>
					<g>
						<g>
							<path class="st14" d="M541.6,307.5c-0.6,0.1-0.8,1-0.3,1.4s1.3,0,1.3-0.6C542.6,307.8,542.1,307.4,541.6,307.5z"/>
						</g>
					</g>
					<g>
						<g>
							<path class="st14" d="M554.7,306.3c0.2-0.2,0.4-0.5,0.4-0.8c0.1-0.3,0-0.6-0.2-0.8c-0.4-0.3-1,0.1-1,0.6
								C553.8,305.7,554.2,306.2,554.7,306.3z"/>
						</g>
					</g>
					<g>
						<g>
							<path class="st14" d="M553.6,316.6c0,0.4-0.4,0.8-0.8,0.8c-0.4,0-0.8-0.4-0.8-0.8s0.4-0.8,0.8-0.8
								C553.3,315.8,553.6,316.1,553.6,316.6z"/>
						</g>
					</g>
					<g>
						<g>
							<circle class="st14" cx="548.2" cy="300.4" r="0.8"/>
						</g>
					</g>
					<g>
						<g>
							<circle class="st14" cx="539.1" cy="286.3" r="0.8"/>
						</g>
					</g>
					<g>
						<g>
							<path class="st14" d="M557,324.5c0,0.4-0.3,0.7-0.7,0.7s-0.7-0.3-0.7-0.7s0.3-0.7,0.7-0.7S557,324.1,557,324.5z"/>
						</g>
					</g>
					<g>
						<g>
							<path class="st14" d="M545.5,315.6c0,0.3-0.3,0.6-0.6,0.6s-0.6-0.3-0.6-0.6c0-0.3,0.3-0.6,0.6-0.6S545.5,315.3,545.5,315.6z"
								/>
						</g>
					</g>
					<g>
						<g>
							<path class="st14" d="M535.6,306.8c0,0.5-0.4,0.9-0.9,0.9s-0.9-0.4-0.9-0.9s0.4-0.9,0.9-0.9
								C535.2,305.9,535.6,306.3,535.6,306.8z"/>
						</g>
					</g>
				</g>
			</g>
		</g>
		<g>
			<g>
				<g>
					<path class="st9" d="M555.8,227.7c-1.7-0.6-2.8-2.5-4.6-2.5c-1.7,0.1-2.7,2-4.2,2.7c-1.5,0.6-3.4,0.2-4.5,1.3
						c-1.3,1.2-0.7,3.3-1.2,5c-0.4,1.5-1.6,2.7-2.6,3.9s-1.8,2.8-1.3,4.3c0.3,0.9,1.2,1.6,1.1,2.6c0,0.4-0.3,0.8-0.4,1.2
						c-0.3,1,0,2.2,0.3,3.2c0.4,1,0.1,1.9,0,3c0,1.1-1,2-0.7,3.8c10.7,1.9,21.3,3.2,31.9,0.7c-0.8-0.7-0.8-2.5-0.3-3.4
						c0.3-0.6,0.9-1.2,0.7-1.8s-1.1-0.7-1.5-1.1c-1.1-1.2-1.3-2.7-0.8-3.1c0.9-0.8,0.8-2.2,0.8-3.3c0-2.4-2.3-4.1-3.5-6.2
						c-1-1.7-1.2-3.7-1.8-5.6c-0.6-1.9-1.8-3.8-3.7-4.2C558.4,227.7,557.1,228.1,555.8,227.7z"/>
				</g>
			</g>
			<g>
				<g>
					<path class="st16" d="M543.1,234.1c-0.7,0.9-1.3,2-1,3.1c0.2,0.7,0.8,1.3,0.9,2c0.1,1.6-2.3,2.4-2.5,4.1
						c-0.1,0.9,0.6,1.6,0.9,2.5c0.4,1.1,0.2,2.4-0.2,3.5s-0.9,2.2-1.1,3.4c-0.2,1.2,0.1,2.5,1,3.3c0.5,0.4,1.1,0.6,1.8,0.7
						c3.4,0.9,6.8,1.5,10.3,1.5s7-0.7,10.1-2.3c0.1,0,0.2-0.1,0.2-0.2c0.2-0.3-0.2-0.6-0.5-0.7c-0.7-0.5-0.9-1.5-0.8-2.3
						c0.1-0.9,0.5-1.7,0.6-2.5c0.2-0.9,0.1-1.8-0.4-2.5c-0.8-1-2.4-0.8-3.5-1.4c-1.4-0.7-2-2.3-2.3-3.8s-0.7-3.1-1.9-4.2
						c-1.3-1.1-3.3-1.2-4.3-2.6c-0.5-0.8-0.6-1.8-1.1-2.6c-0.7-1-2.1-1.3-3.3-1C544.9,232.4,543.9,233.2,543.1,234.1z"/>
				</g>
			</g>
			<g>
				<g>
					<g>
						<g>
							<path class="st15" d="M547.7,258.6c1.7-3.8,1.9-7.4,2.3-11.5c2.9,0.8,5.2,0.9,8.2,0.6c0.6,3.9,1.2,7.8,1.8,11.7
								c0.7,0.3,1.2,0.8,1.4,1.4c0.2,0.8-0.2,1.6-0.7,2.4c-1.6,2.5-3.8,4.8-6.5,5.9c-2.7,1.2-6.1,1.1-8.5-0.7
								c-2.4-1.8-3.2-5.5-1.5-7.9C544.8,259.8,546.9,259,547.7,258.6z"/>
						</g>
					</g>
				</g>
				<g>
					<g>
						<g>
							<path class="st16" d="M561.2,260.4c-1.9,6.1-8.2,9.8-14.5,7.5c-0.9,0-2.3-1.1-3.2-2.5c0.4,1.2,1.1,2.3,2.1,3.1
								c2.4,1.8,5.8,1.9,8.5,0.7c2.7-1.2,4.9-3.5,6.5-5.9c0.5-0.7,0.9-1.5,0.7-2.4C561.4,260.7,561.3,260.6,561.2,260.4z"/>
						</g>
					</g>
				</g>
				<g>
					<g>
						<g>
							<path class="st16" d="M557.5,247.8c-2.6,0.2-4.8,0-7.5-0.7c-0.4,4.1-0.7,7.7-2.3,11.5c-0.8,0.4-2.9,1.2-3.4,1.9
								c-0.6,0.9-0.9,1.9-0.9,3c3.4-2.3,7.7-3.7,11.4-4.6C557.4,258,556.9,252.5,557.5,247.8z"/>
						</g>
					</g>
				</g>
				<g>
					<g>
						<g>
							<path class="st2" d="M548.8,255.3c0.7-2.6,0.9-5.3,1.2-8.2c2.4,0.7,4.6,0.9,7,0.7C556.8,252.8,553.2,254.5,548.8,255.3z"/>
						</g>
					</g>
				</g>
			</g>
			<g>
				<g>
					<g>
						<g>
							<g>
								<path class="st15" d="M543.7,239.7c0.3-0.4,0.3-1,0.3-1.5c-0.1-1.1,0.3-2.9,0.7-4l0.7-2c4.3-2.2,9.4-1.3,13.1,1.8
									c1.5,1.3,2.8,3,3,5s-0.6,3.9-1.4,5.7c-0.9,2-1.9,4.1-3.5,5.6c-1.5,1.4-3.6,2.2-5.6,2.7c-1.4,0.3-2.9,0.4-4.4,0.4
									c-1.1,0-2.1-0.7-2.5-1.8c-1-3-1.7-6.1-1.3-9.4C542.8,241.2,543.2,240.4,543.7,239.7z"/>
							</g>
						</g>
					</g>
				</g>
				<g>
					<g>
						<g>
							<g>
								<path class="st16" d="M561.5,238.9c-0.2-2-1.5-3.7-3-5c-2.9-2.4-6.5-3.5-9.9-2.8c0.4,0.2,0.8,0.5,1.2,0.8
									c2.6,1.7,2.2,6.4,5.2,8.3c1,0.6,1.6,1.7,1.5,2.8c-0.1,2.1,0.2,4.2,1.2,6c1-1.3,1.7-2.9,2.4-4.4
									C560.9,242.8,561.7,240.9,561.5,238.9z"/>
							</g>
						</g>
					</g>
				</g>
			</g>
			<g>
				<g>
					<path class="st9" d="M564.4,249.8c0.2-1.8,0.8-3.6,0.7-5.5c-0.1-1.4-0.5-2.7-1.3-3.8c-0.2-0.3-0.4-0.5-0.6-0.7
						c0-0.2,0-0.4,0-0.6c0.1-1.6,0-3.4-0.7-4.8c-0.9-1.8-2.6-3.1-4.5-3.9c-2.5-1.1-5.6-1.7-8.3-1.4l-2.6,1.2c1.1-0.3,4.4,0.7,5,1.7
						c0.5,0.9,0.5,2,0.8,2.9c0.4,1.2,1.3,2.1,2.4,2.6c0.9,0.3,1.9,0.5,2.4,1.2s0.2,1.7,0,2.6c-0.3,1.2-0.5,2.4-0.3,3.7
						c0.1,0.6,0.3,1.2,0.6,1.8c0.1,0.7,0.7,1.4,1.3,1.9c0.8,0.6,1.8,1.1,2.2,2c0.5,1,0.3,2.4,1,3.3c0.7,0.9,1.9,1,3,1.1
						C564.4,253.7,564.2,251.6,564.4,249.8z"/>
				</g>
			</g>
			<g>
				<g>
					<g>
						<path class="st12" d="M538.4,243c0.3,0.3,0.6,0.5,0.7,0.9c0.1,0.5-0.2,0.9-0.4,1.3c-0.4,1-0.2,2.2,0.6,2.9c-0.4-1-0.3-2,0.1-3
							c0.3-0.5,0.7-1.1,0.5-1.6c-0.1-0.8-1.1-1.2-1.4-1.9c-0.2-0.6,0-1.2,0.3-1.7s0.7-1,0.8-1.6c-0.6,0.6-1.3,1.3-1.6,2.1
							C537.8,241.3,537.8,242.3,538.4,243z"/>
					</g>
				</g>
				<g>
					<g>
						<path class="st12" d="M540.4,249.6c-0.6,1-1.1,2.1-1.3,3.2c-0.2,1.1,0.1,2.4,1,3.2C539.5,253.9,539.6,251.7,540.4,249.6z"/>
					</g>
				</g>
				<g>
					<g>
						<g>
							<path class="st12" d="M559.6,237.1c0.8,0.2,1.2,1.1,1.2,1.9c0,0.8-0.4,1.6-0.6,2.4c-0.2,0.8-0.3,1.7,0.1,2.4
								c0.4,0.7,1.2,1,1.9,1.4s1.3,1.1,1.2,1.9c-0.1,0.6-0.6,1-0.6,1.6c0,0.4,0.3,0.8,0.6,1.1s0.7,0.5,0.9,0.9
								c0.3,0.4,0.3,0.9,0.2,1.4s-0.3,0.9-0.5,1.4c0.5-0.4,0.9-0.9,0.9-1.6c0.1-0.6-0.1-1.3-0.5-1.7c-0.2-0.3-0.5-0.5-0.7-0.8
								c-0.2-0.5,0-1.1,0.2-1.6s0.5-1,0.4-1.6c-0.1-0.7-0.8-1.1-1.5-1.5c-0.6-0.3-1.4-0.7-1.6-1.4c-0.3-0.8,0.2-1.6,0.4-2.5
								C562.1,239.3,561.1,237.5,559.6,237.1z"/>
						</g>
					</g>
					<g>
						<g>
							<path class="st12" d="M567.1,246c0.3-0.7,0.9-1.3,0.8-2c-0.1-0.7-0.8-1.2-1.4-1.5c0.3,0.2,0.6,0.4,0.8,0.6
								c0.2,0.3,0.4,0.6,0.3,0.9c-0.1,0.5-0.5,0.8-0.9,1.2c-0.9,1-1.2,2.6-0.6,3.8c0.3,0.6,0.9,1.2,1.1,1.8c0.4,0.9,0.3,1.9-0.1,2.8
								c-0.4,0.9-0.9,1.7-1.5,2.4c0.7-0.6,1.3-1.1,1.8-1.8s0.8-1.6,0.7-2.5c-0.2-1-0.9-1.8-1.3-2.7C566.5,248.2,566.6,247,567.1,246
								z"/>
						</g>
					</g>
					<g>
						<g>
							<path class="st12" d="M550,228.6c1.3,0.3,2.3,1.2,3.3,2.2c-2.1-1.4-4.9-1.6-7.1-0.4C546.9,229,548.5,228.2,550,228.6z"/>
						</g>
					</g>
					<g>
						<g>
							<path class="st12" d="M556.5,233.5c-0.5-0.5-0.8-1.2-1.1-1.8s-0.6-1.3-1.1-1.8s-1.2-0.9-1.8-0.8c0.6,0.2,1.1,0.8,1.4,1.4
								c0.3,0.6,0.6,1.3,0.9,1.8C555.3,232.9,555.9,233.4,556.5,233.5z"/>
						</g>
					</g>
					<g>
						<g>
							<path class="st12" d="M556.4,230.8c0.1,0.8,0.7,1.5,1.5,1.7c0-0.5-0.3-1.1-0.7-1.4C556.8,230.7,556.9,230.7,556.4,230.8z"/>
						</g>
					</g>
				</g>
			</g>
		</g>
		<g>
			<g>
				<g>
					<g>
						<g>
							<g>
								<path class="st17" d="M573.2,311.2l-9.7,1.3c0.5-8.6,0-17.2-1.4-25.7c-1-6.4-2.5-13.2-0.1-19.2c0.9-2.3,2.7-4.6,5.2-4.8
									c1.7-0.2,3.3,0.7,4.5,1.9c1.2,1.2,1.9,2.8,2.5,4.4c3.1,8.3,2.4,14.6,1.6,23.4C575.2,298.4,575.3,305.4,573.2,311.2z"/>
							</g>
						</g>
					</g>
				</g>
				<g>
					<g>
						<g>
							<g>
								<path class="st10" d="M561.4,269.3c-1.6,5.6-0.3,11.7,0.7,17.6c1.4,8.5,1.8,17.1,1.4,25.7l2.7-0.4
									C567.6,297.9,565.4,283,561.4,269.3z"/>
							</g>
						</g>
					</g>
				</g>
				<g>
					<g>
						<circle class="st14" cx="565.6" cy="269.3" r="0.6"/>
					</g>
				</g>
				<g>
					<g>
						<circle class="st14" cx="572.7" cy="274.4" r="1"/>
					</g>
				</g>
				<g>
					<g>
						<path class="st14" d="M568.2,285c0,0.4-0.4,0.8-0.8,0.8c-0.4,0-0.8-0.4-0.8-0.8s0.4-0.8,0.8-0.8
							C567.9,284.2,568.2,284.5,568.2,285z"/>
					</g>
				</g>
				<g>
					<g>
						<circle class="st14" cx="574.4" cy="285.3" r="0.8"/>
					</g>
				</g>
				<g>
					<g>
						<path class="st14" d="M572.6,296.8c0,0.4-0.3,0.7-0.7,0.7s-0.7-0.3-0.7-0.7s0.3-0.7,0.7-0.7S572.6,296.5,572.6,296.8z"/>
					</g>
				</g>
			</g>
			<g>
				<g>
					<g>
						<g>
							<g>
								<g>
									<path class="st15" d="M561.4,282c-0.4,0.5-1.3,1-1.4,1.6c-0.1,0.2,0.1,0.3,0.1,0.5c0,1,0,2,0.2,3.1
										c-1.7,1.7-3.5,1.7-5.3,2.4l-0.2-1.9c-0.1-0.4-0.3-1-0.6-1.3c-0.2-0.4-0.6-0.6-0.9-0.9c-0.7-0.7-1-1.7-1.1-2.6
										c-0.1-1,0-1.9,0-2.9c0-2.8-0.6-5.6-0.9-8.4c0-0.4-0.1-0.8,0.1-1.1c0.3,0,0.8,0.4,0.9,0.7c0.5,1.8,0.9,3.1,1.3,5.5
										c0.4-0.5,0.2-1.1,0.1-1.8c0-0.7-0.2-1.5-0.3-2.2c-0.2-1.1-0.5-2-0.5-3.1c0-0.3,0.3-0.8,0.5-0.9c0.3-0.1,0.5,0.1,0.6,0.5
										c-0.1-0.5,0-0.5,0-0.8s0.3-0.6,0.6-0.5c0.9,1.1,2,2.9,2.3,4.3s0.3,1.9,0.2,3.7c0.3-1.4,0.2-2.9-0.3-4.2
										c-0.2-0.6-0.6-1.2-0.7-1.9c-0.2-0.6-0.2-1.4,0.2-1.9c1.6,2.3,3.2,4.8,3.1,7.6c0,1.2-0.4,2.3,0,3.4c0.5-0.3,1.1-0.7,1.4-1.2
										c0.3-0.5,0.4-1,0.7-1.5s0.7-0.9,1.2-1c0.1,0,0.3,0,0.4,0.1c0.1,0.1,0.1,0.3,0.1,0.5c-0.3,1.4-1.1,2.6-1.3,4
										C561.8,280.6,561.9,281.4,561.4,282z"/>
								</g>
							</g>
						</g>
					</g>
					<g>
						<g>
							<g>
								<g>
									<path class="st16" d="M552.8,284.7c0.1,0.2,0.3,0.5,0.5,0.7c0.3,0.3,0.7,0.6,0.9,0.9c0.2,0.4,0.5,0.9,0.6,1.3l0.2,1.9
										c1.8-0.7,3.6-0.7,5.3-2.4c-0.1-1-0.2-2-0.2-3.1c0-0.2-0.2-0.3-0.1-0.5C557.7,284.7,555.3,284.9,552.8,284.7z"/>
								</g>
							</g>
							<g>
								<g>
									<path class="st15" d="M561.4,282c0.4-0.6,0.4-1.4,0.5-2.2c0.2-1.4,1-2.6,1.3-4c0-0.2,0-0.3-0.1-0.5
										c-0.1-0.1-0.2-0.1-0.4-0.1c-0.5,0-1,0.5-1.2,1c-0.3,0.5-0.4,1-0.7,1.5c-0.4,0.5-0.9,0.9-1.4,1.2c-0.3-1.1,0-2.3,0-3.4
										c0.1-2.8-1.6-5.3-3.1-7.6c-0.4,0.5-0.4,1.3-0.2,1.9s0.5,1.2,0.7,1.9c0.5,1.3,0.6,2.8,0.3,4.2c0.1-1.8,0.1-2.3-0.2-3.7
										c-0.3-1.4-1.4-3.2-2.3-4.3c-0.3-0.1-0.6,0.2-0.6,0.5s-0.1,0.3,0,0.8c-0.1-0.3-0.2-0.6-0.6-0.5c-0.2,0.1-0.5,0.7-0.5,0.9
										c0,1.1,0.2,2,0.5,3.1c0.1,0.6,0.3,1.5,0.3,2.2s0.3,1.2-0.1,1.8c-0.3-2.4-0.7-3.7-1.3-5.5c-0.1-0.3-0.5-0.8-0.9-0.7
										c-0.2,0.3-0.2,0.7-0.1,1.1c0.3,2.8,0.9,5.6,0.9,8.4c0,1-0.1,1.9,0,2.9c0.1,0.7,0.3,1.4,0.6,2c2.5,0.2,4.8,0,7.2-1.1l0,0
										C560.2,283,561.1,282.6,561.4,282z"/>
								</g>
							</g>
							<g>
								<g>
									<path class="st2" d="M555.9,276.4h-0.5c0-2.6-0.6-5.1-1.9-7.4l0.4-0.3C555.2,271,555.9,273.7,555.9,276.4z"/>
								</g>
							</g>
						</g>
					</g>
					<g>
						<g>
							<g>
								<g>
									<g>
										<path class="st17" d="M569.1,315.5c-2.2,0.4-5-0.4-6.3-2.2c-1.4-1.8-2.7-4.4-3.3-6.6c-1.9-6.6-3.7-13.4-5.6-20
											c2.5-0.1,5.8-1.5,7.1-3.6c2.2,5.4,4.7,10.7,7.9,15.6c1.9,2.8,4.1,5.6,4.7,8.9C574.1,310.9,572.4,314.9,569.1,315.5z"/>
									</g>
								</g>
							</g>
						</g>
					</g>
					<g>
						<g>
							<path class="st2" d="M570.8,306c0-4.4-2.1-8.5-4.2-12c-0.6-1-1.2-1.9-1.8-2.8c-1.6-2.4-3.1-4.7-4-7.8l0.5-0.1
								c0.9,3,2.4,5.3,3.9,7.6c0.6,0.9,1.2,1.8,1.8,2.9c2.1,3.5,4.2,7.7,4.3,12.3L570.8,306z"/>
						</g>
					</g>
				</g>
				<g>
					<g>
						<circle class="st14" cx="564.9" cy="307.7" r="0.8"/>
					</g>
				</g>
				<g>
					<g>
						<circle class="st14" cx="566.4" cy="299.2" r="0.6"/>
					</g>
				</g>
				<g>
					<g>
						<path class="st14" d="M560.1,295.6c0,0.3-0.3,0.6-0.6,0.6s-0.6-0.3-0.6-0.6c0-0.3,0.3-0.6,0.6-0.6
							C559.9,295,560.1,295.3,560.1,295.6z"/>
					</g>
				</g>
				<g>
					<g>
						<path class="st14" d="M561.4,289.7c0,0.3-0.3,0.6-0.6,0.6s-0.6-0.3-0.6-0.6c0-0.3,0.3-0.6,0.6-0.6
							C561.1,289.2,561.4,289.4,561.4,289.7z"/>
					</g>
				</g>
			</g>
		</g>
		<g>
			<g>
				<g>
					<g>
						<path class="st2" d="M505.5,381.8c-1.8,0-3.3-1.3-3.5-3.1l-3.6-27.1c-0.5-3.6-1.1-8.1,0.6-11.3c1.2-2.2,2.6-4.5,4.7-5.9
							c3.9-2.7,8.5-4.5,13-6.2c5.5-2.2,10.8-4.2,14.5-7.8l0.3,0.4c-3.7,3.6-9,5.7-14.6,7.9c-4.4,1.7-9,3.5-12.9,6.2
							c-2,1.4-3.3,3.6-4.5,5.8c-1.7,3-1.1,7.4-0.6,11l0.1,0.7l3.5,26.3c0.2,1.5,1.5,2.6,3,2.6L505.5,381.8L505.5,381.8z"/>
					</g>
				</g>
			</g>
		</g>
	</g>
	<g>
		<g>
			<g>
				<g>
					<g>
						<g>
							<g>
								<path class="st15" d="M264.1,205.7c0.4,2.6-0.3,5.3-1.8,7.3c-1,4.8-4.9,8.9-9.5,9.9c-4.3-1.9-7.3-6.8-7-11.7
									s3.7-9.4,8.2-10.8c2.5-0.7,5.5-0.4,7.3,1.5L264.1,205.7z"/>
							</g>
						</g>
					</g>
					<g>
						<g>
							<g>
								<path class="st16" d="M256.9,200c-1,0-2,0.1-2.9,0.4c-4.5,1.3-8,5.9-8.2,10.8c-0.3,4.9,2.7,9.8,7,11.7
									c0.4-0.1,0.9-0.2,1.3-0.4C252.5,214.8,252.4,206.3,256.9,200z"/>
							</g>
						</g>
					</g>
					<g>
						<g>
							<g>
								<path class="st15" d="M235.8,226.1c-0.5-0.6,0-1.4,0.4-2c3.6-4.8,6.1-10,7-15.9c3.6,1.5,7.2,2.2,11.1,2.8
									c-1.6,6.4-2.8,13-3.4,19.6c-4.8-1.4-9.5-2.7-14.3-4.1C236.3,226.4,236,226.3,235.8,226.1z"/>
							</g>
						</g>
					</g>
					<path class="st3" d="M267.3,205.1c2.1-0.7,3.8-2.6,4.2-4.8c-1.4,0.8-3.1,1-4.7,0.6c0.5,0,0.9-0.2,1.2-0.5
						c-1.9-0.1-3.6-1.1-5.1-2.2c-1.5-1.1-2.9-2.4-4.4-3.4c-1.6-1-3.5-1.7-5.3-1.4c-0.2,0-0.4,0.1-0.7,0.2c-1.1-0.1-2.2-0.1-3.2,0.2
						c-3.6,0.9-6.1,4.3-6.9,7.9c-0.8,3.6-1.2,7.8-0.2,11.4c3.6,1.7,9,1.6,12.8,0.5c0.5-0.2,1.1-0.4,1.6-0.6c0.2-0.7,0.3-1.5,0.4-2.2
						c0.1-0.9,0.4-1.7,1-2.4c0.6-0.6,1.6-0.9,2.4-0.4c0.5,0.3,0.7,0.9,0.7,1.5c0,0.3,0,0.5-0.1,0.8c0.8-0.6,1.5-1.4,2.1-2.1
						c2.6,0.2,5.3-1.1,6.7-3.3C269,205.1,268.1,205.2,267.3,205.1z"/>
					<g>
						<g>
							<path class="st16" d="M259.4,210.9c0.1-0.2,0.3-0.3,0.5-0.4c0.4-0.3,0.5-0.9,0.4-1.3c-0.2-0.5-0.7-0.7-1.2-0.6
								c-0.4,0.2-0.7,0.7-0.7,1.2s0.2,1,0.3,1.5c-0.2-0.2-0.5-0.2-0.7,0s-0.3,0.4-0.2,0.7c0.1,0.2,0.2,0.3,0.3,0.4s0.2,0.3,0.1,0.5
								c0,0.1-0.1,0.2-0.2,0.3s0,0.2,0.1,0.3c0.1,0,0.1,0,0.2-0.1c0.5-0.3,0.8-0.9,0.9-1.4C259.2,211.5,259.2,211.2,259.4,210.9z"/>
						</g>
					</g>
					<g>
						<g>
							<path class="st11" d="M257.6,198.6c0.4,0.3,0.4,0.9,0.7,1.3c0.4,0.4,1.1,0.3,1.7,0.3c1.1,0,2.1,0.6,2.9,1.3s1.3,1.7,1.9,2.6
								c0.4-0.6,0.8-1.2,1.1-1.8c-3.8-2.2-7.7-4.5-11.5-6.7c0.2,0.9,0.4,1.9,0.6,2.8c0,0.2,0.1,0.4,0.2,0.5c0.3,0.3,0.8,0.2,1.2-0.1
								C256.7,198.6,257.2,198.4,257.6,198.6z"/>
						</g>
					</g>
				</g>
				<g>
					<g>
						<g>
							<path class="st2" d="M214.1,403.3c-0.9-0.5-2.3-0.7-3.3-0.8c-1-0.1-1.9-0.4-2.8-0.9c-0.9-0.5-1.6-1.5-1.3-2.5
								c-2.6-0.2-4.6-1.1-6.9-2.3c0,1.9-1.2,3.6-1.8,5.4c-0.1,0.4-0.1,1-0.1,1.5c-0.2,1.2-0.2,2.5,0.2,3.7c2.2,1.2,4.7,1.8,7.2,1.4
								c0.1-0.4,0.2-0.8,0.3-1.2c1.3-0.3,2.3-0.5,3.5-0.3c1.3,0.2,1.8,0.5,2.6,0.4c0.7-0.1,1.1-0.4,1.8-0.7c0.7-0.3,1.5-1.1,1.7-1.8
								C215.5,404.3,215,403.9,214.1,403.3z"/>
						</g>
					</g>
					<g>
						<g>
							<path class="st14" d="M206.2,400.8c-1.9-0.9-3.9-1.8-6-2.3c-0.3,0.4-0.5,0.8-0.7,1.3c-0.1,0.5-0.1,1,0.2,1.4s0.7,0.6,1.2,0.7
								C202.7,402.4,204.7,402,206.2,400.8z"/>
						</g>
					</g>
					<g>
						<g>
							<g>
								<path class="st11" d="M202.8,377.4c-1,2.4-2.3,11.2-3.5,14.4c-1,2.4-2,3.7-0.5,5.9c1.5,2.2,6.1,4.5,8.5,3.5
									c6.7-17.2,14.6-34,20.8-51.4s10.8-35.7,10.4-54.2c-10-3.2-20-6.3-30-9.5c-9.4,22.4-3.2,29.1-2.3,45.5
									C207.1,347.9,208.8,362.1,202.8,377.4z"/>
							</g>
						</g>
					</g>
					<g>
						<g>
							<g>
								<path class="st20" d="M238.5,295.5c-7.3-2.3-14.7-4.7-22-7c-10,22.3-0.8,47.3-2.7,70.4c-1.3,14.8-4.9,28.7-10,42.1
									c1.3,0.4,2.6,0.6,3.6,0.1c6.7-17.2,14.6-34,20.8-51.4C234.3,332.3,238.9,314,238.5,295.5z"/>
							</g>
						</g>
					</g>
					<g>
						<g>
							<g>
								<path class="st2" d="M215.8,288.3c7.6,2.4,15.2,4.8,22.7,7.2c0.4,18.5-4.2,36.8-10.4,54.2c-4.1,11.4-8.8,22.4-13.5,33.6
									c0.8-4.1,1.2-8.3,1.8-12.2C222.4,342.5,201.2,315.4,215.8,288.3z"/>
							</g>
						</g>
					</g>
				</g>
				<g>
					<g>
						<g>
							<path class="st2" d="M244.9,413.7c-0.5-1.1-1.7-1.7-2.9-1.9c-1.2-0.2-2.4,0-3.6,0c-4.8,0-9.4-2.4-14.1-1.7
								c0,2-0.3,4.1-0.1,6.1c0,0.4,0.1,0.7,0.2,1.1c0,1,0.2,2.1,0.4,3.1c0.1,0.5,0.2,1.1,0.5,1.5c0.4,0.6,1.1,0.8,1.8,1
								c2.6,0.7,5.4,0.2,7.6-1.3c0.3-0.2,0.5-0.4,0.7-0.7c0.1-0.2,0.1-0.4,0.1-0.7c0.7-0.3,1.4-0.6,2.2-0.8c1.7-0.5,2.4-0.7,4-1.5
								C243.3,417.2,245.7,415.3,244.9,413.7z"/>
						</g>
					</g>
					<g>
						<g>
							<path class="st14" d="M235.8,412.9c0.4-0.1,0.8,0.2,0.9,0.6c0.1,0.4-0.1,0.8-0.4,1.1c-0.3,0.3-0.7,0.4-1.1,0.5
								c-1.7,0.5-3.5,0.6-5.3,0.6c-1.1,0-2.2-0.1-3.2-0.5s-1.9-1.2-2.2-2.2s0.3-2.3,1.3-2.6L235.8,412.9z"/>
						</g>
					</g>
					<g>
						<g>
							<g>
								<path class="st11" d="M210.3,290.1l0.6-6.7c9.3,4.2,19.9,8.8,30,10.4c0,22.1,2.1,40.8,1.5,61.1c-0.6,18.8-3.9,39-6.6,58.8
									c-4.5,1.1-7.6,1.4-11.7-1.6c-0.2-16.7-1.2-29.7-0.2-37.1c1-7.3-2.5-25.5-4.7-32.6C212.2,319.9,205.7,316.5,210.3,290.1z"/>
							</g>
						</g>
					</g>
					<g>
						<g>
							<g>
								<path class="st20" d="M230.7,351.9c-1.8-20.2-11.3-42.1-5.8-62.6c-4.8-1.8-9.6-3.9-14-5.9l-0.6,6.7
									c-4.6,26.4,1.9,29.8,8.8,52.2c2.2,7.2,5.7,25.3,4.7,32.6c-1,7.4,0,20.4,0.2,37.1c1.9,1.4,3.6,2.1,5.4,2.3
									C231.1,393.6,232.4,372.9,230.7,351.9z"/>
							</g>
						</g>
					</g>
					<g>
						<g>
							<g>
								<path class="st21" d="M233.4,413.1c7.5-37.2,4.9-76.1,1.4-112.6l0.8-0.1c2.8,37.1,5.7,75.4-1.6,112.5
									C233.7,412.9,233.7,413,233.4,413.1z"/>
							</g>
						</g>
					</g>
				</g>
				<g>
					<g>
						<path class="st2" d="M229.1,224.1c-3.4-0.6-6.8,2-8.1,5.2s-1,6.9-0.3,10.3c1.8,9.5,5.9,18.4,11.4,26.4
							c2.2,3.1,4.6,6.2,7.5,8.6c7.5,6.1,17.5,7.7,27,9.1c0.9-2.1,1.9-4.1,2.8-6.2c-10.8-5.8-19.7-15-25.1-25.9
							c-3.8-7.6-5.8-16-7.9-24.2L229.1,224.1z"/>
					</g>
				</g>
				<g>
					<g>
						<polygon class="st2" points="281.3,293.7 262.1,293.7 269.9,261.8 289.1,261.8 						"/>
					</g>
				</g>
				<g>
					<g>
						<polygon class="st13" points="280.4,288.7 264.2,288.7 270.8,261.8 287,261.8 						"/>
					</g>
				</g>
				<g>
					<g>
						<path class="st6" d="M270.8,261.8l-6.1,24.9c5.2-6.1,11.1-10.6,18.8-10.8l3.5-14.1H270.8z"/>
					</g>
				</g>
				<g>
					<g>
						<g>
							<path class="st3" d="M230.5,223.7c2.2-1.3,3.9-3.3,4.9-5.7c7.8,0.5,15.2,5.2,18.8,12.1c-3.2-1.2-6.4-2.4-9.6-3.6
								c-4-1.5-8.2-3.1-12.5-3L230.5,223.7z"/>
						</g>
					</g>
					<g>
						<g>
							<g>
								<g>
									<path class="st3" d="M244.5,307.7c0.3-3.2-1-10.1-0.5-20.8c0.3-8.6,0.6-5.4,0.8-8c0.5-6.5,2.6-8.6,5.8-14.3
										c2.4-4.3,6.2-11.6,8.7-15.8s3.9-9.8,1.3-14.1c-1.6-2.6-4.3-4.3-7-5.7c-4-2.1-8.2-3.8-12.4-5.2c-4.8-1.6-10.4-2.7-14.6,0.2
										c-2.8,1.9-6.1,5.6-7.8,8.5c-9.5,15.8-8.2,21.6-13.1,48.9c-0.4,2.2-7.7,17.8-8.8,22.7c2.4,0.9,4.8,1.7,7.3,2.3
										c1.1-6.6,2.9-12.9,5.4-18.7c0,7.4-2.1,12.5-1.7,19.6C219.6,309.7,232.1,309.2,244.5,307.7z"/>
								</g>
							</g>
						</g>
					</g>
					<g>
						<g>
							<path class="st22" d="M232.7,224.2c5.4,0.4,10.7,1.5,15.8,3.2c-4.5-3-9.8-4.7-15.2-4.8c-0.4,0-0.8,0-1.2,0.2
								s-0.6,0.7-0.3,1.1C232,224.2,232.4,224.2,232.7,224.2z"/>
						</g>
					</g>
					<g>
						<g>
							<path class="st20" d="M230,223.3c-3.2,1-6.1,3.3-7.7,6.3C224.8,227.5,227.4,225.4,230,223.3z"/>
						</g>
					</g>
					<g>
						<g>
							<path class="st20" d="M255.7,233.3c-1.4,2-2.9,3.9-4.3,5.9C251.9,236.8,253.5,234.6,255.7,233.3z"/>
						</g>
					</g>
					<g>
						<g>
							<g>
								<g>
									<path class="st22" d="M238.1,308.4c2.1-0.2,4.3-0.4,6.4-0.7c0.3-3.2-1-10.1-0.5-20.8c0.3-8.6,0.6-5.4,0.8-8
										c0.5-6.5,2.6-8.6,5.8-14.3c2.4-4.3,6.2-11.6,8.7-15.8c2.4-3.9,3.7-9,1.8-13.1C235.1,249.6,235.4,280.2,238.1,308.4z"/>
								</g>
							</g>
						</g>
					</g>
				</g>
				<g>
					<g>
						<g>
							<path class="st15" d="M272.6,236.9c1.5-0.8,3.1-1.5,4.8-1.9c-0.8-1.7-1.2-3.5-1.1-5.4c0.1-1.1,0.2-2.3-0.5-3
								c-0.4-0.4-1-0.6-1.6-0.7c-1.3-0.3-2.7-0.7-4-1s-1.7,0.1-2.4-1.1c-0.3-0.5-1.5-1.8-1.8-2.2s-1.2-2.2-2.1-1.4
								c-0.4,0.4,0.5,2.1,0.7,2.6c0.6,1.3,1.1,2.6,1.7,3.9c0.4,1,0.7,1.7-0.1,2.5c-0.3,0.3-1,0.3-1.3,0.5s-0.2,1.4-0.1,1.8
								c0.1,0.2,0.3,0.4,0.5,0.5C267.7,233.6,270.2,235.3,272.6,236.9z"/>
						</g>
					</g>
					<g>
						<g>
							<g>
								<path class="st17" d="M278.8,235.2c-0.5-1-1-1.9-1.6-2.9c-2.3-0.1-4.5,0.8-6.2,2.3c-0.3,0.2-0.5,0.6-0.5,0.9
									c0,0.2,0.1,0.4,0.2,0.5c0.7,1.3,1.3,2.6,2,3.9c1.9-2,3.7-3.1,6.5-3.6L278.8,235.2z"/>
							</g>
						</g>
					</g>
					<g>
						<g>
							<g>
								<path class="st3" d="M287.1,274.2c1.8-0.6,2.9-2.3,3.5-4.1c1.1-3.3,0.7-7-0.4-10.4c-1.1-3.3-2.8-6.5-4.2-9.7
									c-1.9-4.4-3.1-9.1-5.3-13.4c-0.5-0.9-1-1.9-1.9-2.4c-1.2-0.5-2.7,0.1-4.1,0.3c-1,0.1-1.9,1.2-2.9,1.6
									c-0.7,0.3-1,1.1-0.8,1.8c1.6,6.3,2.9,12.3,3.6,18.8c0.4,3.4,0.7,6.9,1.9,10.1c1.2,3.2,3.6,6.2,6.9,7.3
									C284.6,274.5,285.9,274.6,287.1,274.2z"/>
							</g>
						</g>
					</g>
					<g>
						<g>
							<g>
								<path class="st22" d="M271.8,236.2c-0.7,0.3-1,1.1-0.8,1.8c1.6,6.3,2.9,12.3,3.6,18.8c0.4,3.4,0.7,6.9,1.9,10.1
									c1.2,3.2,3.6,6.2,6.9,7.3c0.1,0,0.1,0,0.2,0c-0.8-13.5-4.6-26.9-9.9-39.2C273,235.4,272.4,235.9,271.8,236.2z"/>
							</g>
						</g>
					</g>
					<g>
						<g>
							<g>
								<path class="st3" d="M250.2,245.4c0.7-4.6,3.3-8.8,7.1-11.5c0.8-0.6,1.7-1.1,2.7-0.9c0.8,0.1,1.4,0.7,2,1.2
									c7.2,6.9,12.6,15.5,19.8,22.3c2,1.9,4.1,3.6,5.7,5.8c1.6,2.2,2.8,4.9,2.5,7.6s-2.3,5.3-5,5.7c-2.1,0.2-4.1-0.8-5.8-2
									c-3.1-2.1-5.8-4.7-8.6-7.2c-4.6-4-9.5-7.5-14.7-10.6c-1.6-1-3.3-1.9-4.4-3.5C250,250.5,249.8,247.8,250.2,245.4z"/>
							</g>
						</g>
					</g>
					<g>
						<g>
							<path class="st20" d="M283.5,258.1c2.9,2.5,4.6,6.3,4.5,10.1c0.6-1.9,0.5-4.1-0.3-5.9C286.9,260.5,285.4,258.9,283.5,258.1z"
								/>
						</g>
					</g>
					<g>
						<g>
							<g>
								<path class="st22" d="M282.7,272.9c-8.4-12.6-23.2-17.4-32.4-28.2c0,0.2-0.1,0.5-0.1,0.7c-0.4,2.4-0.2,5,1.2,7
									c1.1,1.5,2.8,2.5,4.4,3.5c5.2,3.1,10.1,6.6,14.7,10.6c2.8,2.4,5.5,5,8.6,7.2c1.6,1.1,3.4,2.1,5.2,2
									C283.8,274.8,283.3,273.9,282.7,272.9z"/>
							</g>
						</g>
					</g>
				</g>
			</g>
		</g>
		<g>
			<g>
				<path class="st22" d="M210.1,283.9c0.8-18.1,5.9-36.1,14.8-51.9C215.5,247.6,210.3,265.7,210.1,283.9z"/>
			</g>
		</g>
	</g>
	<g>
		<g>
			<g>
				<g>
					<g>
						<g>
							<g>
								<g>
									<g>
										<path class="st2" d="M404.2,400.5c-1.4,3,0.7,5.6,0.7,8.3c2.9,0.2,5.2,0.1,8.1,0.2c0-0.6,0-1.3,0-1.9
											c5.5,2.4,11.8,2.9,17.6,1.3c0.2-1.4-0.9-2.7-2.2-3.3c-1.3-0.6-2.7-0.6-4.1-0.8c-2.1-0.3-4.2-0.9-6-2
											c-1.8-1.2-3.2-3-3.7-5.1c-2.7,0.3-5.3,0.5-8,0.8c-0.7,0.1-1.5,0.2-1.9,0.7C404.2,399.1,404.4,399.9,404.2,400.5z"/>
									</g>
								</g>
							</g>
							<g>
								<g>
									<g>
										<path class="st13" d="M407.1,401.8c2.1,0.6,4.4,0.8,6.5,0.5c0.3,0,0.7-0.1,0.9-0.4c0.1-0.2,0.1-0.5,0-0.8
											c-0.2-0.9-0.3-1.8-0.5-2.7c-3,0.5-6,1.1-9,2C405.4,401.2,406.3,401.5,407.1,401.8z"/>
									</g>
								</g>
							</g>
						</g>
						<g>
							<g>
								<g>
									<g>
										<path class="st3" d="M373.8,263.7c-0.2,9.6,2.3,18.8,4.1,27.5c7.9,37.5,16.3,72.9,25,111c3.2-1.1,9.8-2.3,13-3.4
											c-2.5-46-7.9-89.8-15.6-135.1H373.8z"/>
									</g>
								</g>
							</g>
							<g>
								<g>
									<g>
										<path class="st22" d="M373.8,263.7c-0.2,9.6,2.3,18.8,4.1,27.5c7.9,37.5,16.3,72.9,25,111c1.7-0.6,4.3-1.2,6.9-1.8
											c-7-46.8-20-91.8-35.1-136.7H373.8z"/>
									</g>
								</g>
							</g>
							<g>
								<g>
									<g>
										<path class="st10" d="M405.6,401.2c-1.4-6.8-2.7-12.7-4-19.1c-6.3-31.3-11.6-58.1-19.5-90.5l0.3-0.3
											c7.9,32.4,13.4,59.4,19.7,90.7c1.3,6.5,2.4,12.3,3.8,19.1L405.6,401.2z"/>
									</g>
								</g>
							</g>
						</g>
					</g>
					<g>
						<g>
							<g>
								<g>
									<g>
										<path class="st2" d="M363.7,414.5c1-0.7,1-2.1,1-3.3c-0.1-1.7-0.2-3.4-0.3-5c0-0.5-0.1-1.1-0.4-1.5
											c-0.4-0.5-1.2-0.6-1.9-0.6c-3.2,0-6.5,0-9.7,0.1c-1.7,4.3-3.4,8.7-5.1,13c-0.3,0.9-0.7,1.9-0.1,2.6c0.4,0.5,2,1.1,2.7,1.2
											c2.9,0.2,2.7,0.1,5.6,0.1c1,0,4.3-1.4,4.8-2.3c0.8-1.2-0.2-2.2,0.8-3.2C361.8,414.9,363,415,363.7,414.5z"/>
									</g>
								</g>
							</g>
							<g>
								<g>
									<g>
										<path class="st13" d="M354.5,408.9c0.9,0.1,1.7,0.1,2.6,0.2c1.2,0.1,2.5,0.2,3.7-0.2c1.2-0.3,2.3-1.1,2.7-2.3
											c-2.9-1-6-1.4-9-1.1c-0.6,0.1-1.2,0.1-1.7,0.4s-0.9,0.9-0.8,1.5c0.1,0.5,0.5,1,1,1.2C353.4,408.8,353.9,408.8,354.5,408.9
											z"/>
									</g>
								</g>
							</g>
						</g>
						<g>
							<g>
								<g>
									<g>
										<path class="st3" d="M357.5,263.7l-0.3,3.3c-3,28.3-5.6,46.8-5.7,70.1c-0.2,23.3,0.8,46.7-1.7,69.9
											c5.4-0.6,10.8-0.3,16.1,0.7c3.7-44,11.7-81.8,18.6-122.4c1-6,0.5-13.8-0.3-21.6H357.5z"/>
									</g>
								</g>
							</g>
							<g>
								<g>
									<g>
										<path class="st22" d="M363.2,300.9c6.3-17.1,14.5-1.8,19.9-37.2h-25.6l-0.3,3.3c-3,28.3-5.6,46.8-5.7,70.1
											c-0.2,23.3,0.8,46.7-1.7,69.9c1.4-0.1,2.8-0.2,4.2-0.3C353.6,375.9,352.4,329.9,363.2,300.9z"/>
									</g>
								</g>
							</g>
							<g>
								<g>
									<g>
										<path class="st10" d="M363.2,406.7l-0.4-0.2c3.2-40.2,10.1-76,19.5-117.5l0.4,0.2C373.3,330.6,366.4,366.5,363.2,406.7z"
											/>
									</g>
								</g>
							</g>
						</g>
					</g>
				</g>
				<g>
					<g>
						<g>
							<g>
								<path class="st13" d="M377.2,272.8c0-0.9,0-1.9,0-2.9c-5.8,0.2-11.5,0.6-17.3,1.2c-0.5,1.6-1,3.2-1.5,4.8
									c6.2-1,12.5-1.7,18.9-2C377.3,273.5,377.3,273.2,377.2,272.8z"/>
							</g>
						</g>
					</g>
					<g>
						<g>
							<g>
								<path class="st13" d="M378.4,269.9c0.1,1,0,2,0.1,2.9c0,0.3,0,0.7,0,1c0.6,0,1.3-0.1,1.9-0.1c0-1.3,0-2.7,0-4
									C379.8,269.8,379.1,269.8,378.4,269.9z"/>
							</g>
						</g>
					</g>
					<g>
						<g>
							<g>
								<path class="st13" d="M393.2,273.8c2.5,0.1,4.9,0.2,7.3,0.4c-0.3-1.5-0.5-2.9-0.8-4.4c-2.2-0.1-4.4-0.1-6.6-0.1
									C393.1,271.1,393.1,272.4,393.2,273.8z"/>
							</g>
						</g>
					</g>
					<g>
						<g>
							<g>
								<path class="st13" d="M392,273.8c0-1.4,0-2.7-0.1-4.1c-0.8,0-1.5,0-2.3,0c0.3,1.3,0.3,2.7,0.3,4
									C390.6,273.7,391.3,273.7,392,273.8z"/>
							</g>
						</g>
					</g>
					<g>
						<g>
							<g>
								<path class="st9" d="M388.3,269.7c-2.2,0-4.5,0-6.7,0.1c0,1.3,0,2.6,0,4c2.4-0.1,4.7-0.1,7.1,0
									C388.8,272.3,388.7,271,388.3,269.7z"/>
							</g>
						</g>
					</g>
				</g>
			</g>
			<g>
				<g>
					<g>
						<path class="st3" d="M373.7,207.5c0.1,0.3,0.1,0.7,0,1.1c-0.4,2-0.9,3.9-1.3,5.9c-3.4-2.6-3.6-7.9-6.6-11
							c2.3,1,4.6,2.1,6.9,3.1C373.1,206.8,373.6,207,373.7,207.5z"/>
					</g>
				</g>
			</g>
			<g>
				<g>
					<g>
						<g>
							<path class="st14" d="M391.3,201.9c-12.1-4.9-23.4-5.4-36.5-4c-3.3,0.3-6.8,1.1-8.9,3.5c-2.4,2.8-1.9,6.8-1.2,10.3
								c4.1,19.6,12.1,38.9,11.3,58.9c14.9-2.3,30.1-2.9,45.1-2c-3.6-16.6-4.2-31.6-1.2-48.2c0.7-3.9,0.2-9.3-2.4-12.5
								C396.2,206.3,393.4,202.8,391.3,201.9z"/>
						</g>
					</g>
				</g>
				<g>
					<g>
						<g>
							<g>
								<g>
									<path class="st15" d="M375.6,185.2c-3.8,0.7-9.9,1-13.7,0.3c1.1,5.4,1.7,7.8-0.2,13c24.1,6.3,17.5,4.9,17.9,3.4
										C376.2,197.1,376.2,191,375.6,185.2z"/>
								</g>
							</g>
						</g>
						<g>
							<g>
								<g>
									<path class="st16" d="M379.5,201.9c-3.3-4.8-3.3-10.9-4-16.7c-3.4,0.6-8.4,0.9-12.2,0.5c0.8,4.8,2.2,9.5,3.6,14.2
										C384.7,204.6,379.1,203.3,379.5,201.9z"/>
								</g>
							</g>
						</g>
						<g>
							<g>
								<g>
									<path class="st3" d="M377.4,197.4c-1.2-3.8-1.4-8-1.8-12.2c-3.3,0.6-8.2,0.9-12,0.6C364.2,193.1,370.6,196.8,377.4,197.4z"
										/>
								</g>
							</g>
						</g>
					</g>
					<g>
						<g>
							<g>
								<g>
									<path class="st15" d="M371.8,169.1c-2.1-0.9-4.4-1-6.6-0.4c-2.4,0.7-5.4,1.5-7,3.6s-1.5,5-0.7,7.5
										c1.6,4.6,4.9,8.6,9.4,10.5c4.6,2,7.8,1.8,11.6,1.1c1.2-0.2,2-1.3,1.9-2.5c-0.3-2.9-0.4-5.6-1.4-8.2
										c-0.3-0.9-1.2-1.5-1.5-2.4s0.1-1.7-0.2-2.6C376.2,172.8,374.7,170.4,371.8,169.1z"/>
								</g>
							</g>
						</g>
						<g>
							<g>
								<g>
									<path class="st16" d="M369.7,191.4c3.2,0.9,5.8,0.7,8.7,0.1c1.2-0.2,2-1.3,1.9-2.5c0-0.4-0.1-0.9-0.1-1.3
										C377.1,190.9,373.5,191.8,369.7,191.4z"/>
								</g>
							</g>
						</g>
						<g>
							<g>
								<g>
									<path class="st16" d="M364.7,175.9c3.6-0.2,4.6-0.3,7.6-1.3c1.8-0.3,2.9-0.9,3.6-1.8c-1-1.7-2.3-3-4.2-3.8
										c-2.6-1.2-5.7-0.7-8.5,0.2c-1.9,0.6-3.9,1.4-5.1,3.1c-1.6,2.1-1.5,5-0.7,7.5c1.3,3.8,3.8,7.2,7.2,9.3
										C364.8,184.8,362.2,180.2,364.7,175.9z"/>
								</g>
							</g>
						</g>
						<g>
							<g>
								<g>
									<path class="st3" d="M378,162.7c-0.6,1.3-1.7,2.3-2.9,2.9c0.5-0.5,0.8-1.3,0.8-2c-1.2,1.7-3.3,2.5-5.4,2.9
										s-4.2,0.3-6.2,0.6c-2.1,0.3-4.2,0.9-5.6,2.5c-1.6,1.7-3.9,4-3.1,6.5c-0.9,1.2-1.3,2.7-1,4.1c0.4,1.8,1.9,3.3,3.4,4.3
										c1.5,1.1,3.3,2,4.5,3.4c0.4-1.3,0.6-2.7,0.6-4.1c0.6,0.4,1.1,0.9,1.6,1.4c0.4,0.1,0.7-0.3,0.8-0.7c0-0.4-0.4-1.7-0.6-2
										c-0.5-0.9-0.9-0.7-1.4-1.5c-0.1-0.3-0.3-0.5-0.4-0.8c0-1.8,0.1-3.5,0.6-5.1c0.2,0,0.3,0,0.5-0.1c2.8-0.3,5.6-0.3,8.2-1.3
										s4.9-3.3,5-6c-0.4,0.4-0.9,0.8-1.3,1.2C377.2,167.1,377.9,164.9,378,162.7z"/>
								</g>
							</g>
							<g>
								<g>
									<g>
										<path class="st15" d="M365.6,185c-0.1-0.6-3.1-2.4-3.7-2.2s-1,0.8-1,1.4c-0.1,0.6,0.1,1.2,0.4,1.8
											c0.3,0.8,0.8,1.5,1.4,2.1c0.4,0.5,0.9,0.9,1.5,1.1c0.6,0.2,1.4,0,1.7-0.6L365.6,185z"/>
									</g>
								</g>
							</g>
						</g>
					</g>
				</g>
				<g>
					<g>
						<g>
							<path class="st3" d="M399.9,220.4c0.7-3.9,0.2-9.3-2.4-12.5c-1.4-1.7-4.2-5.2-6.3-6c-2.2-0.9-4.4-1.6-6.6-2.3
								c8.1,21.9,6.3,45.5,7.1,68.6c3.1,0.1,6.2,0.2,9.3,0.4C397.6,252.1,396.9,237.1,399.9,220.4z"/>
						</g>
					</g>
				</g>
				<g>
					<g>
						<g>
							<path class="st3" d="M386.1,268.5c-0.1,0-0.2,0-0.2-0.1c-0.1-0.1,0-0.3,0.1-0.3l3.6-2c-0.3-0.3-0.7-0.5-1.1-0.5
								c-0.1,0-0.2-0.1-0.2-0.2s0.1-0.2,0.2-0.3c1-0.2,1.6-1.2,1.7-2.2c0.1-0.9-0.2-1.9-0.5-2.8l-0.1-0.3c-1.7-5.7-1.9-11.8-2-17.7
								c-0.1-4.2-0.6-9-1.1-13.7s-1-9.5-1.1-13.7c0-0.1,0.1-0.2,0.2-0.2l0,0c0.1,0,0.2,0.1,0.2,0.2c0.1,4.2,0.6,9,1.1,13.7
								s1,9.5,1.1,13.7c0.1,5.8,0.3,11.9,2,17.5l0.1,0.3c0.3,1,0.6,2,0.5,3c-0.1,0.9-0.5,1.8-1.3,2.3c0.4,0.2,0.7,0.4,0.9,0.8
								c0.1,0.1,0,0.3-0.1,0.3l-3.8,2.1C386.2,268.5,386.2,268.5,386.1,268.5z"/>
						</g>
					</g>
				</g>
				<g>
					<g>
						<g>
							<path class="st3" d="M384.4,207.2c-0.7,1.1-0.6,3.3-1.7,3.9c2.5,14.7,2.8,27,0.3,41.7c2.9,2.3,5.1,3.3,7.1,4.7
								c0.2-3.9,1.6-4.2,1.6-6.1c0-1.7-0.5-4.1-1-8C389.1,231.5,387.9,218.6,384.4,207.2z"/>
						</g>
					</g>
				</g>
			</g>
			<g>
				<g>
					<g>
						<g>
							<path class="st10" d="M358.6,195.8c-0.6,0-1.2,1.8-1.8,1.8c-1.1,0.1-1,0.2-2.1,0.4c-3.3,0.4-6.8,1.1-8.9,3.7
								c-2.4,3-1.6,7.3-1.2,11.1c2.9,26.5,15.2,36.9,8.9,77.5c5-0.8,11.5-2.3,17.4-3.2c3.7-0.6,6.4-3.9,6.2-7.6
								c-1.1-19.4-1.8-46.7-4.2-64.3C371.9,207.2,365.4,199.9,358.6,195.8z"/>
						</g>
					</g>
				</g>
				<g>
					<g>
						<path class="st6" d="M357.3,272c5.4-0.8,10.3-4.2,12.9-8.9C366.2,266.4,361.7,269.2,357.3,272z"/>
					</g>
				</g>
				<g>
					<g>
						<g>
							<path class="st3" d="M344.3,209.6c0.1,1.1,0.2,2.1,0.4,3.2c0.6,5.6,1.6,10.5,2.8,15.2c5.3,12.3,16,21.6,28.5,27.1
								c-0.4-7.8-0.8-15.7-1.3-23.1C361.6,227.7,349.7,221.4,344.3,209.6z"/>
						</g>
					</g>
				</g>
				<g>
					<g>
						<g>
							<g>
								<path class="st3" d="M375.4,284.7c-0.1,0-0.2-0.1-0.2-0.2c-0.8-19.7-4-39.3-9.4-58.3c0-0.1,0-0.1,0-0.2
									c0-0.1,0.1-0.1,0.2-0.1c1.6-0.3,3.1-0.9,4.5-1.8l-4.3-0.6c-0.1,0-0.1,0-0.2-0.1s-0.1-0.1,0-0.2c2-9.5-1.8-19.8-9.6-25.5
									c-0.1-0.1-0.1-0.2,0-0.3s0.2-0.1,0.3,0c7.8,5.8,11.8,16.1,9.8,25.7l4.7,0.6c0.1,0,0.2,0.1,0.2,0.2c0,0.1,0,0.2-0.1,0.2
									c-1.5,1-3.2,1.8-5,2.1c5.4,18.9,8.5,38.5,9.4,58.1C375.7,284.6,375.6,284.7,375.4,284.7L375.4,284.7z"/>
							</g>
						</g>
					</g>
					<g>
						<g>
							<g>
								<path class="st3" d="M353.8,289.9c-0.1,0-0.2,0-0.2-0.1c-0.1-0.1,0-0.3,0.1-0.3c2.9-1.6,6.4-1.9,9.6-2.2
									c0.5,0,1-0.1,1.5-0.1c3.6-0.4,7.6-1.1,10.3-3.8c0.1-0.1,0.2-0.1,0.3,0c0.1,0.1,0.1,0.2,0,0.3c-2.8,2.8-6.9,3.5-10.6,3.9
									c-0.5,0-1,0.1-1.5,0.1c-3.2,0.3-6.6,0.6-9.5,2.1C353.9,289.9,353.8,289.9,353.8,289.9z"/>
							</g>
						</g>
					</g>
				</g>
				<g>
					<g>
						<g>
							<path class="st3" d="M357.4,271.2c-0.1,0-0.2,0-0.2-0.1c-0.1-0.1,0-0.3,0.1-0.3c4.3-2.7,8.6-5.5,12.8-8.5
								c0.1-0.1,0.2-0.1,0.3,0.1c0.1,0.1,0.1,0.2-0.1,0.3C366.2,265.7,361.9,268.5,357.4,271.2C357.5,271.2,357.5,271.2,357.4,271.2
								z"/>
						</g>
					</g>
				</g>
			</g>
			<g>
				<g>
					<g>
						<path class="st17" d="M392.9,202.9c6.5,5.5,6.2,9.9,9.5,17.8c2.2,5.1,4.6,12.5,5.3,18c0.6,4.7-0.6,10.5-1.4,15.2
							c-1.8,10.1-1.8,18.9-4.7,28.7c-2.8-3.3-5.7-5.6-6.1-9.9c-0.2-1.7,0.1-3.5,0.4-5.2c1.1-6,2.5-12,2-18.1
							c-0.4-6-2.6-11.7-4.1-17.6c-2.1-8.5-2.6-17.2-3.1-25.9L392.9,202.9z"/>
					</g>
				</g>
			</g>
			<g>
				<g>
					<g>
						<path class="st3" d="M391.5,215.6c0.5,5.5,1.2,10.9,2.5,16.2c1.4,5.8,3.6,11.6,4.1,17.6c0.4,6.1-1,12.1-2,18.1
							c-0.3,1.7-0.6,3.5-0.4,5.2c0.4,4.3,3.3,6.6,6.1,9.9c0.2-0.7,0.4-1.4,0.6-2.1C402.7,257.9,403.5,235.2,391.5,215.6z"/>
					</g>
				</g>
			</g>
			<g>
				<g>
					<g>
						<g>
							<g>
								<path class="st17" d="M382.6,236.1c0.8-4.9-0.8-6.3-3.9-10.3s-5.9-3.7-9.9-6.7c-5.1-3.8-10.2-13.1-15.3-16.9
									c-1.2-0.9-2.5-1.8-4-2.2c-2.9-0.6-6,1.4-7.3,4c-1.3,2.7-1.2,5.9-0.6,8.8c1.4,6.7,5.3,12.8,10.1,17.6
									c4.9,4.8,10.7,8.6,16.7,12c3.3,1.9,7.4,3.7,10.9,2.2C382,243.5,382.1,239,382.6,236.1z"/>
							</g>
						</g>
					</g>
					<g>
						<g>
							<path class="st6" d="M343.8,215.1c-0.9-4.7,0.7-9.7,4.2-13c-1.1-0.6-2.4,0.2-3.2,1.1c-1.5,1.6-2.4,3.6-2.6,5.8
								S342.6,213.3,343.8,215.1z"/>
						</g>
					</g>
					<g>
						<g>
							<path class="st6" d="M351.1,204.6c0.3-0.5-0.1-1.3-0.7-1.4c-0.5-0.1-1,0.3-1.1,0.8s0.4,1,0.9,1
								C350.6,205.1,350.9,204.9,351.1,204.6z"/>
						</g>
					</g>
					<g>
						<g>
							<g>
								<path class="st3" d="M367.9,219.4c-1.9,3.4-2.5,7.6-1.7,11.4c0.8,3.9,3.1,7.4,6.3,9.7c-2.4-5.9-2.5-12.7-0.3-18.8
									C370.7,221,369.3,220.2,367.9,219.4z"/>
							</g>
						</g>
					</g>
				</g>
				<g>
					<g>
						<g>
							<g>
								<path class="st15" d="M377.9,189.7c0.9-0.4,1.9-0.6,2.9-0.7c1.3-0.2,2.7-0.3,4,0c1.4,0.3,2.3,1.2,3.6,1.7
									c0.5,0.2,0.8,0.7,0.6,1.2c-0.2,0.6-0.4,1.1-0.6,1.8c-0.1,0.4,0,1.1-0.4,1.2c-0.4,0.1-0.8-0.2-1-0.6c-0.1-0.4-0.1-0.8,0-1.3
									c-0.9,0.9-2,1.7-3.2,2.2c-0.3,1.3-0.3,2.7-0.1,4.1c-2.1-0.2-4.3-0.5-6.4-0.9c-0.5-0.1-1.1-0.2-1.4-0.7
									c-0.1-0.3-0.2-0.6-0.2-0.9c0-1.6,0.4-2.9,0.4-4.6C376.6,191.2,376.9,190.1,377.9,189.7z"/>
							</g>
						</g>
					</g>
					<g>
						<g>
							<g>
								<path class="st16" d="M376,194.4c-0.1,0.8-0.2,1.6-0.2,2.4c0,0.3,0,0.6,0.2,0.9c0.3,0.5,0.8,0.6,1.4,0.7
									c2.1,0.4,4.2,0.7,6.4,0.9c-0.2-0.9-0.2-1.9-0.1-2.8C381,196.1,378.5,195.4,376,194.4z"/>
							</g>
						</g>
					</g>
					<g>
						<g>
							<g>
								<path class="st17" d="M378.2,245.7c2-0.5,3.6-2.3,4.3-4.3s0.8-4.1,0.9-6.2c0.4-11.8,1.3-25.3,1.7-37.1
									c-2.6-0.8-8.7-1.1-11.2-1.9c-1.4,13.2-6.2,26.9-4.4,40.1c0.3,2.4,0.9,4.9,2.4,6.8C373.4,245,375.9,246.3,378.2,245.7z"/>
							</g>
						</g>
					</g>
					<g>
						<g>
							<path class="st6" d="M373.8,204.1c-1.6,6-3.2,12-4,18.2s-0.8,12.5,0.8,18.5C370,228.4,371,216,373.8,204.1z"/>
						</g>
					</g>
					<g>
						<g>
							<g>
								<path class="st3" d="M384.9,202c-3.9,0-7.7-0.7-11.4-2c-0.1,0-0.2-0.2-0.1-0.3c0-0.1,0.2-0.2,0.3-0.1c3.6,1.3,7.4,2,11.2,2
									c0.1,0,0.1,0,0.2,0s0.2,0.1,0.2,0.2c0,0.1-0.1,0.2-0.2,0.2C385,202,384.9,202,384.9,202z"/>
							</g>
						</g>
					</g>
				</g>
			</g>
			<g>
				<g>
					<g>
						<g>
							<path class="st10" d="M400.9,285.5c1,0.2,2.1,0.3,3,0.4c-3.6-17.7-7-46-4-63.8c0.7-4.2,0.8-10.2-1.7-13.6
								c-1.4-1.8-4.4-5.8-6.5-6.7s-5.1-1.8-7.2-2.4c1.8,2.8,4,6.3,4.4,9.3c3.5,19.2,3.5,49.4,5.8,70.4
								C395.1,282.4,397.6,285,400.9,285.5z"/>
						</g>
					</g>
				</g>
				<g>
					<g>
						<g>
							<path class="st3" d="M397.4,283.3c-0.1,0-0.2-0.1-0.2-0.2c-1.5-14.8-2.2-40-0.9-54.2l-3.2,0.5c-0.1,0-0.2,0-0.3-0.1
								c0-0.1,0-0.2,0.1-0.3l3.9-2.7c-1.9-8.9-5.1-17.4-9.7-25.3c-0.1-0.1,0-0.3,0.1-0.3c0.1-0.1,0.3,0,0.3,0.1
								c4.6,8,7.9,16.6,9.7,25.6c0,0.1,0,0.2-0.1,0.2l-3.2,2.2l2.5-0.4c0.1,0,0.1,0,0.2,0.1c0.1,0,0.1,0.1,0.1,0.2
								c-1.3,14.1-0.6,39.6,0.9,54.4C397.7,283.2,397.6,283.3,397.4,283.3L397.4,283.3z"/>
						</g>
					</g>
				</g>
				<g>
					<g>
						<g>
							<path class="st3" d="M403.1,285.1c-2.2,0-4.4-0.7-6.2-2c-0.1-0.1-0.1-0.2-0.1-0.3c0.1-0.1,0.2-0.1,0.3-0.1
								c1.8,1.3,4.1,2,6.3,1.9c0.1,0,0.2,0.1,0.2,0.2s-0.1,0.2-0.2,0.2C403.3,285.1,403.2,285.1,403.1,285.1z"/>
						</g>
					</g>
				</g>
				<g>
					<g>
						<g>
							<path class="st3" d="M400.3,267.3c-0.1,0-0.1,0-0.1-0.1l-2.1-1.7c-0.1-0.1-0.1-0.2,0-0.3c0.1-0.1,0.2-0.1,0.3,0l2.1,1.7
								c0.1,0.1,0.1,0.2,0,0.3C400.4,267.3,400.3,267.3,400.3,267.3z"/>
						</g>
					</g>
				</g>
			</g>
		</g>
		<g>
			<g>
				<path class="st16" d="M361.8,184c0.7,0.2,1.4,0.6,2,1.2c0.1,0.1,0.1,0.2,0.2,0.3c0,0.2-0.2,0.4-0.2,0.6c-0.2,0.3,0,0.8,0.4,1
					c0.2,0.1,0.5,0.1,0.5,0.3c0,0.1-0.1,0.2-0.2,0.3c-0.3,0.2-0.4,0.6-0.2,1c-0.4-0.3-0.8-0.6-1.1-1s-0.4-1-0.1-1.4
					c0-0.1,0.1-0.1,0-0.2H363c-0.4,0-0.8-0.3-1-0.7C361.6,184.8,361.6,184.4,361.8,184z"/>
			</g>
		</g>
	</g>
</g>
</svg>
