<?xml version="1.0" encoding="utf-8"?>
<!-- Generator: Adobe Illustrator 23.0.1, SVG Export Plug-In . SVG Version: 6.00 Build 0)  -->
<svg version="1.1" id="Layer_1" xmlns="http://www.w3.org/2000/svg" xmlns:xlink="http://www.w3.org/1999/xlink" x="0px" y="0px"
	 viewBox="0 0 34.9 33.6" style="enable-background:new 0 0 34.9 33.6;" xml:space="preserve">
<style type="text/css">
	.st0{fill-rule:evenodd;clip-rule:evenodd;fill:#234397;}
	.st1{fill-rule:evenodd;clip-rule:evenodd;fill:#076BB6;}
	.st2{fill:#FFFFFF;filter:url(#Adobe_OpacityMaskFilter);}
	.st3{mask:url(#mask0_64_25_1_);}
	.st4{fill-rule:evenodd;clip-rule:evenodd;fill:#3A7CFF;}
	.st5{fill:#FFFFFF;filter:url(#Adobe_OpacityMaskFilter_1_);}
	.st6{mask:url(#mask1_64_25_1_);}
	.st7{fill:#FFFFFF;filter:url(#Adobe_OpacityMaskFilter_2_);}
	.st8{mask:url(#mask2_64_25_1_);}
	.st9{fill-rule:evenodd;clip-rule:evenodd;fill:#59BB70;}
	.st10{fill-rule:evenodd;clip-rule:evenodd;fill:#ED2264;}
	.st11{fill-rule:evenodd;clip-rule:evenodd;fill:#234396;}
</style>
<g>
	<path class="st0" d="M30.9,7c0-1.9-1.6-3.5-3.6-3.5c-2,0-3.6,1.6-3.6,3.5s1.6,3.5,3.6,3.5C29.3,10.4,30.9,8.9,30.9,7z"/>
	<path class="st1" d="M5.6,9.3c1.9,0.6,2.9,2.6,2.3,4.5c-0.1,0.3-0.2,0.6-0.3,1C8.6,10.3,12.6,7,17.5,7c2,0,3.6-1.6,3.6-3.5
		c0-1.9-1.6-3.5-3.6-3.5C9.9,0,3.4,4.7,1,11.3C1.7,9.5,3.7,8.6,5.6,9.3z"/>
	<defs>
		<filter id="Adobe_OpacityMaskFilter" filterUnits="userSpaceOnUse" x="0" y="16.4" width="0" height="0.1">
			<feColorMatrix  type="matrix" values="1 0 0 0 0  0 1 0 0 0  0 0 1 0 0  0 0 0 1 0"/>
		</filter>
	</defs>
	<mask maskUnits="userSpaceOnUse" x="0" y="16.4" width="0" height="0.1" id="mask0_64_25_1_">
		<path class="st2" d="M0,16.4L0,16.4l0.1,0.1H0V16.4z"/>
	</mask>
	<g class="st3">
		<path class="st4" d="M0,16.6c0,0,0-0.1,0-0.1C0,16.5,0,16.5,0,16.6z"/>
	</g>
	<defs>
		<filter id="Adobe_OpacityMaskFilter_1_" filterUnits="userSpaceOnUse" x="0" y="17.4" width="0" height="0.2">
			<feColorMatrix  type="matrix" values="1 0 0 0 0  0 1 0 0 0  0 0 1 0 0  0 0 0 1 0"/>
		</filter>
	</defs>
	<mask maskUnits="userSpaceOnUse" x="0" y="17.4" width="0" height="0.2" id="mask1_64_25_1_">
		<path class="st5" d="M0,17.4L0,17.4l0.1,0.2H0V17.4z"/>
	</mask>
	<g class="st6">
		<path class="st4" d="M0,17.4c0,0.1,0,0.1,0,0.2C0,17.5,0,17.4,0,17.4z"/>
	</g>
	<path class="st4" d="M0.2,14.4C0.2,14.4,0.2,14.4,0.2,14.4C0.2,14.4,0.2,14.4,0.2,14.4z"/>
	<path class="st4" d="M0.3,14C0.3,14,0.3,14,0.3,14C0.3,14,0.3,14,0.3,14z"/>
	<path class="st4" d="M0.1,14.8C0.1,14.8,0.1,14.8,0.1,14.8C0.1,14.8,0.1,14.8,0.1,14.8z"/>
	<path class="st4" d="M0,15.7c0,0,0-0.1,0-0.1C0.1,15.7,0,15.7,0,15.7z"/>
	<defs>
		<filter id="Adobe_OpacityMaskFilter_2_" filterUnits="userSpaceOnUse" x="0" y="16" width="0" height="0.1">
			<feColorMatrix  type="matrix" values="1 0 0 0 0  0 1 0 0 0  0 0 1 0 0  0 0 0 1 0"/>
		</filter>
	</defs>
	<mask maskUnits="userSpaceOnUse" x="0" y="16" width="0" height="0.1" id="mask2_64_25_1_">
		<path class="st7" d="M0,16L0,16l0.1,0.1H0V16z"/>
	</mask>
	<g class="st8">
		<path class="st4" d="M0,16.1c0,0,0-0.1,0-0.1C0,16.1,0,16.1,0,16.1z"/>
	</g>
	<path class="st9" d="M17.5,33.6C7.8,33.6,0,26,0,16.7c0-1.9,0.3-3.7,0.9-5.5C1.6,9.3,3.7,8.3,5.6,9c1.9,0.6,2.9,2.6,2.3,4.5
		c-0.4,1-0.5,2.1-0.5,3.2c0,5.5,4.6,9.9,10.2,9.9s10.2-4.4,10.2-9.9c0-1.9,1.6-3.5,3.6-3.5c2,0,3.6,1.6,3.6,3.5
		C34.9,26,27.1,33.6,17.5,33.6z"/>
	<path class="st10" d="M17.5,33.6c-4.7,0-9-1.8-12.3-5c-1.4-1.4-1.4-3.6,0-5c1.4-1.4,3.7-1.4,5.1,0c1.9,1.9,4.5,2.9,7.2,2.9
		c5.6,0,10.2-4.4,10.2-9.9c0-1.9,1.6-3.5,3.6-3.5c2,0,3.6,1.6,3.6,3.5C34.9,26,27.1,33.6,17.5,33.6z"/>
	<path class="st11" d="M25.2,31.3c-1.2,0-2.3-0.5-3-1.6c-1.1-1.6-0.7-3.8,1-4.9c2.8-1.8,4.5-4.9,4.5-8.2c0-1.9,1.6-3.5,3.6-3.5
		c2,0,3.6,1.6,3.6,3.5c0,5.6-2.9,10.9-7.7,14.1C26.6,31.1,25.9,31.3,25.2,31.3z"/>
</g>
</svg>
