<svg width="111" height="34" viewBox="0 0 111 34" fill="none" xmlns="http://www.w3.org/2000/svg">
<path fill-rule="evenodd" clip-rule="evenodd" d="M57.4058 10.8737C54.8821 10.8681 52.9886 12.7144 52.978 15.1912C52.9673 17.6843 54.856 19.5617 57.3878 19.5744C59.9021 19.587 61.8273 17.6902 61.8192 15.2082C61.8112 12.7264 59.9304 10.8793 57.4058 10.8737ZM57.4019 8.92506C61.0486 8.9299 63.8812 11.6949 63.8713 15.2398C63.8615 18.7556 61.0043 21.5304 57.3962 21.528C53.7806 21.5257 50.9071 18.7179 50.917 15.1969C50.9268 11.6849 53.7856 8.92013 57.4019 8.92506Z" fill="#25439A"/>
<path fill-rule="evenodd" clip-rule="evenodd" d="M87.3655 14.1459C85.7408 14.1487 84.5478 15.2933 84.5436 16.8532C84.5392 18.4308 85.7439 19.5956 87.3758 19.5919C89.0022 19.5883 90.2225 18.4051 90.2106 16.8433C90.1989 15.2989 88.9798 14.1431 87.3655 14.1459ZM83.2207 22.9245C83.8488 22.57 84.3746 22.2734 84.9338 21.9578C85.3339 22.6897 85.9549 23.112 86.7715 23.2327C87.5393 23.3461 88.3065 23.3372 89.0167 22.9788C90.0061 22.4795 90.3767 21.5298 90.1698 20.0381C89.7122 20.3526 89.2708 20.7716 88.7422 20.9995C86.4049 22.0076 83.611 20.711 82.8351 18.3033C82.1278 16.1084 83.0667 13.8595 85.1367 12.8369C86.6818 12.0735 88.8457 12.2216 90.052 13.702C90.0744 13.7296 90.1105 13.7465 90.2043 13.8157V12.6361H92.0615C92.0739 12.7245 92.0925 12.7954 92.0925 12.8664C92.0927 15.56 92.1232 18.254 92.0801 20.9469C92.0461 23.0604 90.8849 24.4066 88.7448 24.8468C87.0942 25.1864 85.5075 25.0152 84.148 23.9332C83.8106 23.6647 83.5575 23.2965 83.2207 22.9245Z" fill="#25439A"/>
<path fill-rule="evenodd" clip-rule="evenodd" d="M74.6076 16.1835H79.7792C79.5506 14.8356 78.5078 14.043 77.0756 14.0982C75.7804 14.148 74.6978 15.055 74.6076 16.1835ZM74.5726 17.7503C74.834 18.7188 75.3825 19.3541 76.3171 19.6273C77.6248 20.0095 78.789 19.8047 79.7548 18.7366C80.2587 19.0229 80.77 19.3133 81.3174 19.6244C80.8391 20.318 80.2387 20.8144 79.4791 21.1156C77.909 21.7381 76.3418 21.6887 74.8597 20.9053C73.0075 19.9263 72.1805 17.92 72.7073 15.7896C73.113 14.1482 74.1666 13.0525 75.8462 12.591C77.5095 12.134 79.0496 12.3848 80.3257 13.5754C81.4962 14.6677 81.8678 16.0505 81.699 17.5915C81.694 17.6383 81.6659 17.6829 81.6402 17.7503H74.5726Z" fill="#25439A"/>
<path fill-rule="evenodd" clip-rule="evenodd" d="M100.015 16.1993C99.804 14.7966 98.638 13.9662 97.132 14.1092C95.9126 14.2249 94.8193 15.2257 94.8701 16.1993H100.015ZM101.87 17.7506H94.8264C95.0216 18.6336 95.52 19.2309 96.3389 19.556C97.3883 19.9725 98.9197 19.9788 99.992 18.737C100.497 19.0238 101.009 19.3143 101.554 19.6239C100.986 20.4539 100.236 21.0124 99.2916 21.2725C97.4316 21.7849 95.6791 21.5783 94.2046 20.2763C92.7204 18.9659 92.3751 16.7035 93.2968 14.8108C94.1006 13.1601 96.099 12.1716 98.0888 12.4225C100.713 12.7534 102.287 15.125 101.928 17.6276C101.923 17.6622 101.898 17.6941 101.87 17.7506Z" fill="#25439A"/>
<path fill-rule="evenodd" clip-rule="evenodd" d="M43.1813 16.1911H48.3176C48.2345 14.969 47.1163 14.0739 45.7319 14.0955C44.3726 14.1166 43.2103 15.0634 43.1813 16.1911ZM50.3185 17.754H43.1486C43.3441 18.6408 43.8403 19.259 44.6735 19.5566C46.0396 20.0445 47.2827 19.8649 48.3187 18.7393C48.8295 19.0299 49.341 19.321 49.875 19.6248C49.3822 20.3386 48.7659 20.8506 47.9852 21.1385C46.2389 21.7825 44.5386 21.6751 42.9815 20.6407C41.2589 19.4965 40.7514 17.362 41.3444 15.4853C41.9612 13.5333 43.7335 12.3584 45.8903 12.3903C48.0773 12.4227 49.8552 13.9122 50.2102 16.0487C50.3003 16.5908 50.2831 17.1497 50.3185 17.754Z" fill="#25439A"/>
<path fill-rule="evenodd" clip-rule="evenodd" d="M104.72 21.2793H102.814V12.6454H104.716V13.6933C105.485 12.7089 106.444 12.3743 107.561 12.3904C109.315 12.4157 110.6 13.4965 110.837 15.1862C110.911 15.712 110.915 16.2494 110.919 16.7816C110.929 18.2699 110.922 19.7582 110.922 21.2728H108.985C108.985 21.1147 108.985 20.9707 108.985 20.8266C108.985 19.3245 108.991 17.8223 108.98 16.3202C108.978 16.0127 108.958 15.6935 108.872 15.4006C108.559 14.34 107.296 13.8362 106.11 14.2811C105.075 14.6696 104.746 15.4992 104.729 16.4787C104.704 17.9308 104.721 19.3837 104.72 20.8361C104.72 20.9716 104.72 21.1073 104.72 21.2793Z" fill="#25439A"/>
<path fill-rule="evenodd" clip-rule="evenodd" d="M67.2125 16.8367C66.1697 15.44 65.1502 14.0746 64.1313 12.7089C64.1254 12.7008 64.129 12.686 64.1237 12.6184C64.8075 12.6184 65.4889 12.6096 66.1693 12.6285C66.2638 12.6312 66.373 12.7579 66.4434 12.8502C67.0132 13.5982 67.5752 14.352 68.1405 15.1034C68.1917 15.1715 68.2489 15.2354 68.3352 15.3397C68.8703 14.6277 69.4249 13.9648 69.8893 13.2468C70.2142 12.7444 70.5877 12.5321 71.1946 12.6051C71.6322 12.6576 72.0818 12.6153 72.6265 12.6153C71.5399 14.0662 70.502 15.4521 69.4552 16.8498C70.5536 18.3131 71.6431 19.7645 72.7951 21.2992C72.2131 21.2992 71.7095 21.2696 71.2115 21.3078C70.7406 21.3438 70.4465 21.1969 70.1786 20.8026C69.6098 19.9656 68.9747 19.1709 68.3442 18.3286C67.6783 19.2132 67.0203 20.0653 66.3907 20.9368C66.1929 21.2105 65.9802 21.3242 65.6349 21.3068C65.0795 21.2786 64.5215 21.2992 63.8606 21.2992C65.0137 19.764 66.1079 18.3072 67.2125 16.8367Z" fill="#25439A"/>
<path fill-rule="evenodd" clip-rule="evenodd" d="M30.9531 7.12028C30.9531 5.20097 29.3508 3.64514 27.3741 3.64514C25.3975 3.64514 23.7952 5.20097 23.7952 7.12028C23.7952 9.03959 25.3975 10.5954 27.3741 10.5954C29.3508 10.5954 30.9531 9.03959 30.9531 7.12028Z" fill="#234397"/>
<path fill-rule="evenodd" clip-rule="evenodd" d="M5.64687 9.43035C7.54178 10.0617 8.55076 12.0651 7.90045 13.9049C7.78873 14.2212 7.69597 14.5427 7.6182 14.8677C8.67235 10.487 12.728 7.21424 17.5562 7.21424C19.5594 7.21424 21.1835 5.63728 21.1835 3.69214C21.1835 1.74691 19.5594 0.170044 17.5562 0.170044C9.97847 0.170044 3.51391 4.88224 1.10449 11.4469C1.81903 9.71841 3.81173 8.81901 5.64687 9.43035Z" fill="#076BB6"/>
<mask id="mask0_64_25" style="mask-type:alpha" maskUnits="userSpaceOnUse" x="0" y="16" width="1" height="1">
<path d="M0.0966797 16.6007H0.151721V16.7215H0.0966797V16.6007Z" fill="white"/>
</mask>
<g mask="url(#mask0_64_25)">
<path fill-rule="evenodd" clip-rule="evenodd" d="M0.102051 16.7215C0.103063 16.6812 0.104785 16.641 0.106101 16.6007C0.104683 16.641 0.103063 16.6811 0.102051 16.7215Z" fill="#3A7CFF"/>
</g>
<mask id="mask1_64_25" style="mask-type:alpha" maskUnits="userSpaceOnUse" x="0" y="17" width="1" height="1">
<path d="M0.0966797 17.5555H0.153101V17.7057H0.0966797V17.5555Z" fill="white"/>
</mask>
<g mask="url(#mask1_64_25)">
<path fill-rule="evenodd" clip-rule="evenodd" d="M0.102295 17.5555C0.103611 17.6058 0.106548 17.6557 0.10837 17.7057C0.106548 17.6557 0.103611 17.6058 0.102295 17.5555Z" fill="#3A7CFF"/>
</g>
<path fill-rule="evenodd" clip-rule="evenodd" d="M0.295654 14.5619C0.297983 14.5479 0.300312 14.534 0.302641 14.52C0.300312 14.534 0.297983 14.5479 0.295654 14.5619Z" fill="#3A7CFF"/>
<path fill-rule="evenodd" clip-rule="evenodd" d="M0.36792 14.1378C0.369093 14.1313 0.370373 14.1249 0.371653 14.1184C0.370373 14.1249 0.369093 14.1313 0.36792 14.1378Z" fill="#3A7CFF"/>
<path fill-rule="evenodd" clip-rule="evenodd" d="M0.237061 14.9714C0.237534 14.9674 0.238125 14.9634 0.238716 14.9594C0.238125 14.9634 0.237534 14.9674 0.237061 14.9714Z" fill="#3A7CFF"/>
<path fill-rule="evenodd" clip-rule="evenodd" d="M0.143066 15.8915C0.1458 15.8565 0.14823 15.8214 0.151167 15.7865C0.14823 15.8214 0.1458 15.8565 0.143066 15.8915Z" fill="#3A7CFF"/>
<mask id="mask2_64_25" style="mask-type:alpha" maskUnits="userSpaceOnUse" x="0" y="16" width="1" height="1">
<path d="M0.0966797 16.1851H0.168112V16.3149H0.0966797V16.1851Z" fill="white"/>
</mask>
<g mask="url(#mask2_64_25)">
<path fill-rule="evenodd" clip-rule="evenodd" d="M0.116943 16.3149C0.119171 16.2716 0.121601 16.2284 0.124132 16.1851C0.121601 16.2283 0.119171 16.2716 0.116943 16.3149Z" fill="#3A7CFF"/>
</g>
<path fill-rule="evenodd" clip-rule="evenodd" d="M17.5562 33.7943C7.92899 33.7943 0.0966797 26.1892 0.0966797 16.8412C0.0966797 14.9573 0.413563 13.1055 1.03862 11.3368C1.68883 9.49687 3.75196 8.51726 5.64687 9.14851C7.54179 9.77986 8.55076 11.7832 7.90055 13.6231C7.53608 14.6543 7.35133 15.7371 7.35133 16.8412C7.35133 22.305 11.9292 26.7501 17.5562 26.7501C23.1832 26.7501 27.7611 22.305 27.7611 16.8412C27.7611 14.8961 29.385 13.3191 31.3884 13.3191C33.3917 13.3191 35.0157 14.8961 35.0157 16.8412C35.0157 26.1892 27.1834 33.7943 17.5562 33.7943Z" fill="#59BB70"/>
<path fill-rule="evenodd" clip-rule="evenodd" d="M17.5561 33.7943C12.8925 33.7943 8.50799 32.0309 5.21032 28.8289C3.79383 27.4534 3.79383 25.2233 5.21032 23.8479C6.62691 22.4724 8.92354 22.4724 10.3401 23.8479C12.2676 25.7194 14.8303 26.7501 17.5561 26.7501C23.1831 26.7501 27.761 22.3051 27.761 16.8413C27.761 14.8962 29.3849 13.3192 31.3883 13.3192C33.3916 13.3192 35.0156 14.8962 35.0156 16.8413C35.0156 26.1892 27.1833 33.7943 17.5561 33.7943Z" fill="#ED2264"/>
<path fill-rule="evenodd" clip-rule="evenodd" d="M25.2931 31.5009C24.1286 31.5009 22.9851 30.9576 22.2841 29.9501C21.1626 28.3383 21.5993 26.1489 23.2592 25.0599C26.0781 23.2108 27.761 20.1385 27.761 16.8413C27.761 14.8961 29.3849 13.3192 31.3883 13.3192C33.3916 13.3192 35.0156 14.8961 35.0156 16.8413C35.0156 22.4817 32.1389 27.7362 27.3204 30.8969C26.698 31.3052 25.9917 31.5009 25.2931 31.5009Z" fill="#234396"/>
</svg>
